<svg width="19" height="19" viewBox="0 0 19 19" fill="none" xmlns="http://www.w3.org/2000/svg">
<path d="M12.4561 5.69097L15.4413 2.70581M17.1471 1L15.4413 2.70581L17.1471 1ZM8.95069 9.1964C9.39108 9.63093 9.74117 10.1483 9.98079 10.7187C10.2204 11.289 10.3448 11.9012 10.3469 12.5199C10.349 13.1385 10.2287 13.7515 9.99287 14.3235C9.75707 14.8954 9.41046 15.4151 8.97299 15.8526C8.53553 16.2901 8.01585 16.6367 7.44387 16.8725C6.8719 17.1083 6.25893 17.2286 5.64026 17.2265C5.02159 17.2244 4.40945 17.1 3.83906 16.8604C3.26868 16.6208 2.75134 16.2707 2.31681 15.8303C1.46231 14.9456 0.989489 13.7606 1.00018 12.5307C1.01087 11.3007 1.50421 10.1241 2.37395 9.2544C3.2437 8.38465 4.42025 7.89131 5.65021 7.88062C6.88016 7.86993 8.06511 8.34276 8.94984 9.19726L8.95069 9.1964ZM8.95069 9.1964L12.4561 5.69097L8.95069 9.1964ZM12.4561 5.69097L15.0148 8.24968L18 5.26452L15.4413 2.70581L12.4561 5.69097Z" stroke="#4B7CDB" stroke-width="2" stroke-linecap="round" stroke-linejoin="round"/>
</svg>
