<svg width="88" height="88" viewBox="0 0 88 88" fill="none" xmlns="http://www.w3.org/2000/svg">
<path d="M44.001 55.587C50.4003 55.587 55.588 50.3993 55.588 44C55.588 37.6007 50.4003 32.4131 44.001 32.4131C37.6017 32.4131 32.4141 37.6007 32.4141 44C32.4141 50.3993 37.6017 55.587 44.001 55.587Z" stroke="#D19768" stroke-width="5" stroke-linecap="round" stroke-linejoin="round"/>
<path d="M71.5818 55.1818C71.0857 56.306 70.9377 57.5531 71.1569 58.7622C71.3761 59.9713 71.9525 61.087 72.8118 61.9655L73.0355 62.1891C73.7286 62.8814 74.2784 63.7036 74.6535 64.6085C75.0287 65.5135 75.2218 66.4835 75.2218 67.4632C75.2218 68.4428 75.0287 69.4129 74.6535 70.3178C74.2784 71.2228 73.7286 72.0449 73.0355 72.7373C72.3431 73.4304 71.521 73.9802 70.616 74.3554C69.711 74.7305 68.741 74.9236 67.7614 74.9236C66.7817 74.9236 65.8117 74.7305 64.9067 74.3554C64.0018 73.9802 63.1796 73.4304 62.4873 72.7373L62.2636 72.5136C61.3852 71.6544 60.2695 71.0779 59.0604 70.8587C57.8513 70.6395 56.6042 70.7875 55.48 71.2836C54.3776 71.7561 53.4374 72.5406 52.7751 73.5406C52.1129 74.5406 51.7575 75.7124 51.7527 76.9118V77.5455C51.7527 79.5225 50.9673 81.4186 49.5693 82.8166C48.1713 84.2146 46.2753 85 44.2982 85C42.3211 85 40.425 84.2146 39.027 82.8166C37.629 81.4186 36.8436 79.5225 36.8436 77.5455V77.21C36.8148 75.9763 36.4154 74.7798 35.6975 73.7761C34.9796 72.7723 33.9764 72.0078 32.8182 71.5818C31.694 71.0857 30.4469 70.9377 29.2378 71.1569C28.0287 71.3761 26.913 71.9525 26.0345 72.8118L25.8109 73.0355C25.1186 73.7286 24.2964 74.2784 23.3915 74.6535C22.4865 75.0287 21.5165 75.2218 20.5368 75.2218C19.5572 75.2218 18.5871 75.0287 17.6822 74.6535C16.7772 74.2784 15.9551 73.7286 15.2627 73.0355C14.5696 72.3431 14.0198 71.521 13.6446 70.616C13.2695 69.711 13.0764 68.741 13.0764 67.7614C13.0764 66.7817 13.2695 65.8117 13.6446 64.9067C14.0198 64.0018 14.5696 63.1796 15.2627 62.4873L15.4864 62.2636C16.3456 61.3852 16.9221 60.2695 17.1413 59.0604C17.3605 57.8513 17.2125 56.6042 16.7164 55.48C16.2439 54.3776 15.4594 53.4374 14.4594 52.7751C13.4594 52.1129 12.2876 51.7575 11.0882 51.7527H10.4545C8.47748 51.7527 6.58138 50.9673 5.18339 49.5693C3.78539 48.1713 3 46.2753 3 44.2982C3 42.3211 3.78539 40.425 5.18339 39.027C6.58138 37.629 8.47748 36.8436 10.4545 36.8436H10.79C12.0237 36.8148 13.2202 36.4154 14.2239 35.6975C15.2277 34.9796 15.9922 33.9764 16.4182 32.8182C16.9143 31.694 17.0623 30.4469 16.8431 29.2378C16.6239 28.0287 16.0475 26.913 15.1882 26.0345L14.9645 25.8109C14.2714 25.1186 13.7216 24.2964 13.3465 23.3915C12.9713 22.4865 12.7782 21.5165 12.7782 20.5368C12.7782 19.5572 12.9713 18.5871 13.3465 17.6822C13.7216 16.7772 14.2714 15.9551 14.9645 15.2627C15.6569 14.5696 16.479 14.0198 17.384 13.6446C18.289 13.2695 19.259 13.0764 20.2386 13.0764C21.2183 13.0764 22.1883 13.2695 23.0933 13.6446C23.9982 14.0198 24.8204 14.5696 25.5127 15.2627L25.7364 15.4864C26.6148 16.3456 27.7305 16.9221 28.9396 17.1413C30.1487 17.3605 31.3958 17.2125 32.52 16.7164H32.8182C33.9206 16.2439 34.8608 15.4594 35.523 14.4594C36.1853 13.4594 36.5407 12.2876 36.5455 11.0882V10.4545C36.5455 8.47748 37.3308 6.58138 38.7288 5.18339C40.1268 3.78539 42.0229 3 44 3C45.9771 3 47.8732 3.78539 49.2712 5.18339C50.6692 6.58138 51.4545 8.47748 51.4545 10.4545V10.79C51.4593 11.9894 51.8147 13.1612 52.477 14.1612C53.1392 15.1612 54.0794 15.9457 55.1818 16.4182C56.306 16.9143 57.5531 17.0623 58.7622 16.8431C59.9713 16.6239 61.087 16.0475 61.9655 15.1882L62.1891 14.9645C62.8814 14.2714 63.7036 13.7216 64.6085 13.3465C65.5135 12.9713 66.4835 12.7782 67.4632 12.7782C68.4428 12.7782 69.4129 12.9713 70.3178 13.3465C71.2228 13.7216 72.0449 14.2714 72.7373 14.9645C73.4304 15.6569 73.9802 16.479 74.3554 17.384C74.7305 18.289 74.9236 19.259 74.9236 20.2386C74.9236 21.2183 74.7305 22.1883 74.3554 23.0933C73.9802 23.9982 73.4304 24.8204 72.7373 25.5127L72.5136 25.7364C71.6544 26.6148 71.0779 27.7305 70.8587 28.9396C70.6395 30.1487 70.7875 31.3958 71.2836 32.52V32.8182C71.7561 33.9206 72.5406 34.8608 73.5406 35.523C74.5406 36.1853 75.7124 36.5407 76.9118 36.5455H77.5455C79.5225 36.5455 81.4186 37.3308 82.8166 38.7288C84.2146 40.1268 85 42.0229 85 44C85 45.9771 84.2146 47.8732 82.8166 49.2712C81.4186 50.6692 79.5225 51.4545 77.5455 51.4545H77.21C76.0106 51.4593 74.8388 51.8147 73.8388 52.477C72.8388 53.1392 72.0543 54.0794 71.5818 55.1818V55.1818Z" stroke="#D19768" stroke-width="5" stroke-linecap="round" stroke-linejoin="round"/>
</svg>
