<svg width="87" height="73" viewBox="0 0 87 73" fill="none" xmlns="http://www.w3.org/2000/svg">
<path d="M61.96 70V62.5555C61.96 58.6067 60.407 54.8197 57.6428 52.0275C54.8785 49.2353 51.1293 47.6666 47.22 47.6666H17.74C13.8307 47.6666 10.0815 49.2353 7.31725 52.0275C4.55296 54.8197 3 58.6067 3 62.5555V70" stroke="#CA75C0" stroke-width="5" stroke-linecap="round" stroke-linejoin="round"/>
<path d="M32.033 33.3733C40.1736 33.3733 46.773 26.574 46.773 18.1867C46.773 9.7993 40.1736 3 32.033 3C23.8923 3 17.293 9.7993 17.293 18.1867C17.293 26.574 23.8923 33.3733 32.033 33.3733Z" stroke="#CA75C0" stroke-width="5" stroke-linecap="round" stroke-linejoin="round"/>
<path d="M84.293 69.9998V62.3905C84.2905 59.0186 83.1485 55.7429 81.0466 53.0779C78.9446 50.4129 76.0016 48.5095 72.6797 47.6665" stroke="#CA75C0" stroke-width="5" stroke-linecap="round" stroke-linejoin="round"/>
<path d="M58.3867 3C61.7088 3.8126 64.6533 5.65838 66.756 8.24634C68.8587 10.8343 70.0001 14.0172 70.0001 17.2933C70.0001 20.5694 68.8587 23.7524 66.756 26.3403C64.6533 28.9283 61.7088 30.7741 58.3867 31.5867" stroke="#CA75C0" stroke-width="5" stroke-linecap="round" stroke-linejoin="round"/>
</svg>
