<svg width="40" height="40" viewBox="0 0 40 40" fill="none" xmlns="http://www.w3.org/2000/svg">
<path d="M37.9989 28.9529V34.3724C38.0009 34.8755 37.8977 35.3735 37.6957 35.8344C37.4938 36.2954 37.1976 36.7092 36.8261 37.0493C36.4546 37.3895 36.0161 37.6484 35.5385 37.8096C35.061 37.9708 34.555 38.0306 34.0529 37.9853C28.483 37.3813 23.1328 35.4818 18.432 32.4394C14.0586 29.6659 10.3507 25.9653 7.57161 21.6005C4.51255 16.8878 2.60883 11.5221 2.01469 5.93831C1.96946 5.43876 2.02895 4.93528 2.18936 4.45993C2.34978 3.98458 2.60762 3.54777 2.94645 3.17732C3.28529 2.80687 3.6977 2.51089 4.15744 2.30822C4.61717 2.10556 5.11415 2.00065 5.61673 2.00018H11.0469C11.9254 1.99155 12.777 2.302 13.443 2.87367C14.1091 3.44534 14.5441 4.23922 14.6671 5.10733C14.8963 6.84167 15.3213 8.54457 15.9341 10.1835C16.1777 10.8301 16.2304 11.5328 16.086 12.2084C15.9416 12.884 15.6063 13.5041 15.1196 13.9952L12.8208 16.2895C15.3975 20.8121 19.1496 24.5567 23.6812 27.1284L25.98 24.8341C26.4722 24.3484 27.0935 24.0137 27.7704 23.8696C28.4473 23.7256 29.1514 23.7782 29.7993 24.0212C31.4415 24.6328 33.1478 25.057 34.8856 25.2858C35.7648 25.4096 36.5678 25.8516 37.1419 26.5277C37.7159 27.2038 38.0209 28.067 37.9989 28.9529Z" fill="white" stroke="#FFA200" stroke-width="3" stroke-linecap="round" stroke-linejoin="round"/>
</svg>
