<svg width="24" height="21" viewBox="0 0 24 21" fill="none" xmlns="http://www.w3.org/2000/svg">
<g opacity="0.5">
<path d="M20 5.22217H3.11111C1.94518 5.22217 1 6.16734 1 7.33328V17.8888C1 19.0548 1.94518 19.9999 3.11111 19.9999H20C21.1659 19.9999 22.1111 19.0548 22.1111 17.8888V7.33328C22.1111 6.16734 21.1659 5.22217 20 5.22217Z" stroke="#050B44" stroke-width="2" stroke-linecap="round" stroke-linejoin="round"/>
<path d="M15.7784 20V3.11111C15.7784 2.55121 15.556 2.01424 15.1601 1.61833C14.7642 1.22242 14.2272 1 13.6673 1H9.4451C8.88519 1 8.34822 1.22242 7.95231 1.61833C7.5564 2.01424 7.33398 2.55121 7.33398 3.11111V20" stroke="#050B44" stroke-width="2" stroke-linecap="round" stroke-linejoin="round"/>
</g>
</svg>
