<svg width="55" height="55" viewBox="0 0 55 55" fill="none" xmlns="http://www.w3.org/2000/svg">
<path d="M46.2232 42.8446C45.1299 42.8446 44.1107 42.8479 43.0915 42.8436C42.0637 42.8393 41.343 42.1562 41.357 41.209C41.3699 40.2875 42.0841 39.6292 43.0925 39.6281C45.2942 39.6238 47.4958 39.6238 49.6964 39.6281C50.7671 39.6302 51.4437 40.2982 51.4459 41.3626C51.4523 43.5642 51.4512 45.7658 51.4459 47.9664C51.4437 48.9942 50.7564 49.7256 49.8188 49.718C48.8759 49.7095 48.2315 48.991 48.2272 47.9374C48.224 47.1942 48.2261 46.45 48.2261 45.6638C47.5001 46.3673 46.8407 47.0374 46.1491 47.6732C41.9949 51.4912 37.1384 53.8732 31.5452 54.6637C23.5463 55.7946 16.3442 53.8378 10.0862 48.7461C4.8302 44.4695 1.61151 38.9203 0.420477 32.2252C-0.299083 28.1828 -0.0832154 24.1823 0.976793 20.2225C1.25173 19.1947 2.0862 18.6621 3.02808 18.9123C3.8894 19.141 4.35228 20.0249 4.09453 21.0033C3.46733 23.3864 3.13762 25.805 3.23857 28.2687C3.47055 33.9672 5.41336 39.0084 9.14326 43.3322C12.3974 47.1051 16.4205 49.7513 21.2641 50.9134C31.0877 53.2707 39.3906 50.5804 46.1222 43.0465C46.1555 43.0122 46.1684 42.9595 46.2232 42.8446Z" fill="#3F3CCE"/>
<path d="M8.71511 12.1342C9.86319 12.1342 10.8824 12.1299 11.9016 12.1353C12.9262 12.1407 13.6575 12.8312 13.6436 13.771C13.6285 14.6924 12.9154 15.3508 11.9048 15.3529C9.70317 15.3583 7.50153 15.3583 5.30096 15.3529C4.22055 15.3508 3.55576 14.6892 3.55361 13.6206C3.54932 11.419 3.55039 9.21734 3.55361 7.01677C3.55469 5.98576 4.23666 5.25332 5.17424 5.26191C6.10859 5.2705 6.76693 6.00294 6.77123 7.04362C6.77338 7.78788 6.77123 8.53214 6.77123 9.2807C7.39091 8.69109 7.9773 8.12726 8.56905 7.5688C12.7855 3.58544 17.759 1.15719 23.4983 0.301234C37.9851 -1.85959 51.6954 7.82869 54.4705 22.1716C55.2792 26.3493 55.1493 30.4873 54.0506 34.5963C53.78 35.6091 52.9498 36.1622 52.0713 35.927C51.1337 35.6757 50.6644 34.8154 50.9415 33.7726C51.5515 31.4764 51.8619 29.1416 51.7545 26.7703C51.414 19.2525 48.3135 13.1062 42.4431 8.3979C39.0827 5.70331 35.2282 4.05154 30.9635 3.47697C24.1169 2.5555 17.918 4.18148 12.4472 8.44515C11.0897 9.50193 9.8793 10.708 8.71511 12.1342Z" fill="#3F3CCE"/>
<path d="M30.8859 38.944C24.9039 38.944 18.938 38.944 12.9506 38.944C12.7648 35.4944 13.9355 32.6871 16.7987 30.6852C19.62 28.7123 23.9986 28.6962 26.8392 30.5434C29.9108 32.5421 31.134 35.706 30.8859 38.944Z" fill="#3F3CCE"/>
<path d="M28.584 29.6184C30.9811 27.3373 34.9226 26.9206 37.7825 28.2631C41.2289 29.8805 42.8968 32.9961 42.537 37.3478C42.4414 37.3532 42.3405 37.3628 42.2395 37.3628C39.1454 37.3639 36.0524 37.3596 32.9583 37.3704C32.678 37.3714 32.621 37.2812 32.5953 37.017C32.316 34.098 31.0369 31.7009 28.7923 29.815C28.7333 29.7656 28.6731 29.7173 28.6151 29.6668C28.6012 29.655 28.5937 29.6345 28.584 29.6184Z" fill="#3F3CCE"/>
<path d="M22.3067 27.3966C19.7464 27.3988 17.738 25.9822 16.9326 23.8751C16.0465 21.5553 16.6018 19.054 18.3835 17.3475C20.4767 15.3413 23.9456 15.5475 25.8508 17.732C27.6733 19.8219 27.8258 22.9944 26.1751 25.2014C25.1184 26.6126 23.7018 27.3601 22.3067 27.3966Z" fill="#3F3CCE"/>
<path d="M29.582 21.39C29.6658 19.6212 30.5239 18.0295 32.4291 17.1521C34.4117 16.2392 36.6541 16.9309 37.9569 18.7738C39.585 21.0764 38.9546 24.3756 36.5972 25.8921C34.7865 27.0563 32.326 26.7083 30.8944 25.0952C30.0267 24.1168 29.5938 22.9784 29.582 21.39Z" fill="#3F3CCE"/>
</svg>
