<svg width="53" height="52" viewBox="0 0 53 52" fill="none" xmlns="http://www.w3.org/2000/svg">
<path d="M45.9618 32.9023C48.4224 32.5073 49.0549 31.261 49.1056 28.9578C49.2817 20.9542 47.2374 13.914 40.9098 8.65387C33.8429 2.77725 25.7965 1.4722 17.3552 4.94427C8.91393 8.41633 4.15819 14.9788 3.24814 24.1514C3.08802 25.7633 3.27483 27.418 3.04799 29.0165C2.70638 31.4184 3.81393 32.5073 6.15443 32.8703C6.15443 32.1097 6.11174 31.3704 6.16245 30.6391C6.32791 28.2933 8.16402 26.4412 10.4618 26.2544C12.5808 26.0809 14.9 27.4446 15.0735 29.6597C15.3804 33.6095 15.3991 37.6207 15.0735 41.5678C14.8786 43.9163 12.6636 45.1092 10.2617 44.8904C8.02791 44.6849 5.94093 42.8648 6.24783 40.6043C6.73088 37.0309 5.00687 35.4403 2.02319 34.5009C0.456622 34.0072 -0.013069 33.0064 0.000274871 31.3304C0.0509814 26.1156 -0.0424306 20.9382 2.06323 15.977C6.47737 5.57677 17.7769 -1.2019 28.6334 0.177853C40.795 1.7204 50.1197 10.4873 51.6596 22.1044C52.1106 25.5044 51.9852 28.9872 52.0145 32.4326C52.0198 32.953 51.4968 33.5454 51.0858 33.9831C50.7815 34.306 50.2825 34.4929 49.8368 34.6316C46.9492 35.5337 45.4387 37.1162 45.8684 40.4896C46.1726 42.8781 44.091 44.7276 41.7638 44.9037C39.3165 45.0905 37.1255 43.7562 36.9307 41.3009C36.6318 37.5433 36.6371 33.7269 36.9173 29.9666C37.0961 27.5648 39.482 26.0355 41.7291 26.2704C44.0563 26.5132 45.799 28.3387 45.9511 30.7272C45.9991 31.3971 45.9618 32.075 45.9618 32.9023Z" fill="#CCCCE9"/>
<path d="M20.0742 38.2184C20.0742 32.4965 20.0742 26.8468 20.0742 21.0342C21.4273 21.0342 22.799 21.0342 24.3255 21.0342C24.3255 26.708 24.3255 32.4005 24.3255 38.2184C22.9271 38.2184 21.5527 38.2184 20.0742 38.2184Z" fill="#CCCCE9"/>
<path d="M27.7578 38.2102C27.7578 32.363 27.7578 26.7185 27.7578 20.9727C29.1989 20.9727 30.5226 20.9727 31.9985 20.9727C31.9985 26.6865 31.9985 32.3817 31.9985 38.2102C30.624 38.2102 29.2523 38.2102 27.7578 38.2102Z" fill="#CCCCE9"/>
<path d="M32.0629 47.7539C32.0629 49.2351 32.0629 50.5615 32.0629 51.9999C28.0838 51.9999 24.1901 51.9999 20.1309 51.9999C20.1309 50.6629 20.1309 49.2884 20.1309 47.7539C24.0139 47.7539 27.9557 47.7539 32.0629 47.7539Z" fill="#CCCCE9"/>
<path d="M20.0293 44.298C20.0293 43.3666 20.0293 42.5766 20.0293 41.6426C24.0164 41.6426 27.9502 41.6426 32.0147 41.6426C32.0147 42.4806 32.0147 43.3159 32.0147 44.298C28.1023 44.298 24.1686 44.298 20.0293 44.298Z" fill="#CCCCE9"/>
<path d="M30.8113 17.8267C27.4887 17.8267 24.6758 17.8267 21.3398 17.8267C23.0052 15.8785 24.4409 14.1972 26.0422 12.3237C27.6301 14.1545 29.0686 15.8145 30.8113 17.8267Z" fill="#CCCCE9"/>
</svg>
