<svg width="42" height="51" viewBox="0 0 42 51" fill="none" xmlns="http://www.w3.org/2000/svg">
<path d="M0.0294261 0C1.10906 0.46338 2.15173 0.919302 3.20076 1.35712C5.06769 2.13687 6.97684 2.76004 8.9778 3.10837C11.6415 3.57175 14.1955 3.16909 16.664 2.17735C17.9294 1.66923 19.1515 1.03115 20.343 0.360052C20.8348 0.0830893 21.1567 0.0458046 21.6484 0.338746C23.871 1.66284 26.2519 2.57362 28.807 3.01782C31.095 3.41622 33.3376 3.17228 35.5127 2.46603C37.4778 1.82795 39.388 1.01943 41.3225 0.285484C41.5019 0.217308 41.6771 0.13848 41.9662 0.0191736C41.9662 0.302528 41.9662 0.519837 41.9662 0.738211C41.9662 9.96746 41.8987 19.1978 41.999 28.427C42.0401 32.1948 40.8634 35.35 38.5237 38.2336C33.8759 43.9603 28.1378 48.1393 21.3783 50.9334C21.1683 51.0208 20.8569 51.024 20.6511 50.9324C13.4124 47.693 7.35255 42.9175 2.46835 36.6304C0.90536 34.6193 0.0283615 32.313 0.0199186 29.7532C-0.0117422 19.9562 0.00409749 10.1581 0.00304213 0.361112C0.00304213 0.257783 0.0178172 0.15659 0.0294261 0ZM38.0107 5.90889C37.7923 5.97387 37.6593 6.01221 37.5274 6.05376C35.7797 6.60129 34.0035 7.00502 32.1735 7.13711C28.8745 7.37573 25.7601 6.61621 22.7439 5.34218C22.1783 5.10356 21.6199 4.64551 21.0617 4.6519C20.5023 4.6583 19.9514 5.12381 19.3921 5.37733C15.292 7.23405 11.06 7.82419 6.65706 6.70782C5.76106 6.48092 4.87458 6.21674 3.95853 5.96321C3.94692 6.10063 3.92897 6.20289 3.92897 6.30622C3.92792 13.993 3.9184 21.6798 3.93634 29.3665C3.94056 31.0954 4.44821 32.6922 5.50673 34.0685C9.63952 39.4395 14.7337 43.6237 20.7957 46.5968C20.9614 46.6778 21.2379 46.649 21.4163 46.567C27.0213 44.0104 31.763 40.3385 35.6288 35.4896C37.2403 33.4688 38.0656 31.2904 38.0371 28.6571C37.958 21.308 38.0097 13.9578 38.0097 6.60875C38.0107 6.3989 38.0107 6.18798 38.0107 5.90889Z" fill="#CCCCE9"/>
<path d="M18.9757 27.5457C22.7949 23.6626 26.5797 19.8144 30.3312 16C31.2361 16.9193 32.1357 17.8332 33 18.7113C28.3322 23.4555 23.6197 28.2452 18.9404 33C15.9845 29.9971 12.9725 26.9381 10 23.9183C10.8529 23.0529 11.7629 22.1305 12.701 21.1785C14.7427 23.2505 16.8384 25.3765 18.9757 27.5457Z" fill="#CCCCE9"/>
</svg>
