<svg width="45" height="52" viewBox="0 0 45 52" fill="none" xmlns="http://www.w3.org/2000/svg">
<path d="M10.9481 0C18.739 0 26.2127 0 33.9507 0C32.4828 2.65523 31.1897 5.16004 29.7299 7.56723C29.0387 8.70577 29.0549 9.51901 29.8072 10.6372C34.0889 17.0415 38.3503 23.462 42.4937 29.9598C47.0316 37.0797 44.6895 46.3914 37.2971 50.1526C35.264 51.1854 32.8121 51.7466 30.5188 51.8523C25.1839 52.0963 19.8287 51.9783 14.4817 51.9173C8.8825 51.8523 4.5479 49.3922 1.86014 44.4802C-0.78696 39.6455 -0.599919 34.6969 2.36435 30.0411C6.49968 23.5393 10.761 17.1188 15.055 10.7185C15.856 9.52714 15.8316 8.64476 15.1322 7.47369C13.7172 5.10716 12.4282 2.66743 10.9481 0ZM22.362 47.8755C25.0009 47.8755 27.644 47.8918 30.2829 47.8715C34.3369 47.8389 37.4882 46.1393 39.4644 42.5813C41.404 39.0885 41.2291 35.5346 39.0944 32.1922C35.4145 26.4385 31.4052 20.8841 27.9855 14.984C26.1923 11.8896 24.0738 10.6453 20.7192 11.2919C20.0768 11.4139 19.2513 11.7107 18.926 12.1986C14.4694 18.8957 9.94782 25.5561 5.71897 32.3995C1.44945 39.3121 6.30854 47.7698 14.4369 47.8715C17.0799 47.8999 19.723 47.8755 22.362 47.8755ZM26.8673 4.05402C23.8624 4.05402 20.9957 4.05402 17.8444 4.05402C18.8691 5.4284 18.7634 7.30292 21.1096 7.25819C25.5458 7.1728 25.5458 7.28666 26.8673 4.05402Z" fill="#CCCCE9"/>
<path d="M28.2219 21.6975C27.2297 23.0922 26.5303 24.0722 25.774 25.1334C25.0014 24.6536 24.3712 24.0478 23.6392 23.8648C22.8789 23.6777 21.8827 23.6655 21.2402 24.0274C20.7726 24.2877 20.3497 25.4384 20.5571 25.906C20.858 26.5851 21.6753 27.1422 22.3991 27.4919C23.0985 27.8334 24.0052 27.7318 24.7412 28.0245C28.6936 29.6104 30.0395 34.9777 26.8028 37.6858C24.7453 39.4099 24.1069 41.0974 24.5786 43.6347C23.1594 43.6347 21.9192 43.6347 20.4961 43.6347C20.4961 42.2522 20.4961 40.8615 20.4961 39.6295C19.1827 38.7674 18.0645 38.0355 16.8405 37.2264C17.6416 36.096 18.3369 35.1119 19.138 33.9896C19.7886 34.4044 20.3456 34.9655 21.0043 35.1282C21.8379 35.3315 22.8829 35.4738 23.5904 35.1323C24.0784 34.8964 24.5541 33.5749 24.3142 33.1276C23.9401 32.4364 23.0009 31.7695 22.208 31.6394C19.4877 31.1962 17.5603 29.9275 16.682 27.2479C15.9582 25.0318 16.4583 22.1733 18.4345 21.055C20.4717 19.9043 20.5408 18.3795 20.4391 16.5334C20.4229 16.2081 20.4757 15.8788 20.5042 15.4478C21.781 15.4478 22.9765 15.4478 24.4688 15.4478C23.8995 18.4242 24.7534 20.7826 28.2219 21.6975Z" fill="#CCCCE9"/>
</svg>
