<svg width="51" height="51" viewBox="0 0 51 51" fill="none" xmlns="http://www.w3.org/2000/svg">
<path d="M3.41565 19.3586C3.01399 17.7371 2.58143 16.1736 2.24554 14.588C1.82793 12.6181 1.59073 10.6173 1.68741 8.59842C1.7821 6.62651 2.10303 4.69853 3.20237 2.9942C5.12797 0.00887377 8.5177 -0.838798 11.6254 0.880508C13.5231 1.93086 14.9972 3.45348 16.3068 5.14683C18.9779 8.60042 20.9274 12.4594 22.6058 16.4691C22.9188 17.2169 23.2138 17.9727 23.5238 18.7425C23.9803 18.6696 24.1577 18.412 24.1876 17.9727C24.3849 15.0513 25.2939 12.3535 26.8178 9.86643C27.8464 8.18706 28.4315 6.38489 28.4843 4.41298C28.4873 4.28418 28.4843 4.15538 28.4843 3.98864C27.8195 3.98864 27.1946 3.98864 26.5318 3.98864C26.5318 2.64874 26.5318 1.34578 26.5318 0.0128676C32.3156 0.0128676 38.1003 0.0128676 43.909 0.0128676C43.909 1.32381 43.909 2.61479 43.909 3.96068C43.2672 3.96068 42.6293 3.96068 41.9525 3.96068C41.9107 5.0999 42.0103 6.17521 42.3472 7.19861C42.6412 8.09121 42.997 8.98182 43.4565 9.79854C44.8628 12.2946 45.7718 14.9345 45.9403 17.804C45.9732 18.3671 46.1765 18.6716 46.7037 18.9073C48.0333 19.5023 49.325 20.1853 50.6416 20.8103C50.9247 20.9451 51.0234 21.0869 50.9955 21.4074C50.7204 24.5694 50.4662 27.7334 50.2001 30.8965C49.9848 33.4635 49.7376 36.0285 49.5602 38.5974C49.5253 39.1066 49.7227 39.6378 49.8463 40.15C50.1871 41.5678 50.5769 42.9756 50.8898 44.3993C51.2247 45.922 50.7582 47.2948 49.9041 48.5369C49.02 49.8218 47.7792 50.6136 46.2582 50.9511C46.035 51.001 45.7968 50.995 45.5665 50.995C32.3126 50.997 19.0596 50.993 5.8057 51C3.45651 51.001 1.80002 49.8648 0.69569 47.8799C0.00598339 46.6398 -0.199323 45.3119 0.208321 43.8921C0.646863 42.3635 1.01563 40.813 1.34952 39.2574C1.46115 38.7382 1.40635 38.1721 1.36349 37.6319C1.15618 35.031 0.920951 32.4321 0.705667 29.8322C0.490383 27.2322 0.276092 24.6313 0.079745 22.0294C-0.00198327 20.9481 0.0209395 20.9471 1.0256 20.4768C1.83391 20.1004 2.64123 19.721 3.41565 19.3586ZM17.6992 41.0106C17.449 41.0106 17.2507 41.0106 17.0533 41.0106C13.2001 41.0106 9.34594 41.0146 5.49275 41.0037C5.15687 41.0027 5.00638 41.0735 4.92564 41.437C4.67249 42.5862 4.37946 43.7274 4.07447 44.8636C3.92696 45.4147 4.06649 45.878 4.39341 46.3034C4.88377 46.9404 5.56152 47.1071 6.33395 47.1071C19.1075 47.1001 31.88 47.1021 44.6535 47.1021C44.7861 47.1021 44.9197 47.1001 45.0522 47.0991C46.2692 47.0861 47.2978 45.7922 46.8801 44.6689C46.4386 43.4808 46.2153 42.2068 45.9462 40.9587C45.7688 40.139 45.5864 39.3023 45.5745 38.4696C45.5605 37.4942 45.734 36.5177 45.8157 35.5402C46.1446 31.5984 46.4715 27.6556 46.7825 23.7127C46.7944 23.567 46.6679 23.3363 46.5393 23.2654C45.9742 22.9539 45.3941 22.6654 44.799 22.4138C44.6236 22.3399 44.3476 22.3419 44.1821 22.4308C42.8665 23.1337 41.5578 23.8525 40.2661 24.5994C39.9103 24.805 39.6422 24.825 39.2744 24.6193C37.9429 23.8765 36.5844 23.1816 35.2468 22.4487C34.9777 22.301 34.7754 22.3129 34.5192 22.4577C33.2056 23.2005 31.879 23.9194 30.5694 24.6682C30.2893 24.828 30.087 24.837 29.8009 24.6732C28.5351 23.9484 27.2454 23.2644 25.9796 22.5376C25.6388 22.3419 25.3856 22.3199 25.0318 22.5266C23.7859 23.2525 22.5062 23.9214 21.2583 24.6453C20.9214 24.84 20.6773 24.818 20.3543 24.6333C19.0885 23.9074 17.8008 23.2195 16.536 22.4937C16.236 22.3209 16.0148 22.3309 15.7187 22.4996C14.423 23.2395 13.1074 23.9454 11.8107 24.6832C11.5446 24.835 11.3513 24.831 11.0861 24.6812C9.73065 23.9124 8.36621 23.1596 6.99477 22.4178C6.84526 22.3369 6.60804 22.294 6.46253 22.3549C5.77581 22.6444 5.10304 22.9669 4.43725 23.3024C4.32363 23.3593 4.19904 23.545 4.20602 23.6648C4.25087 24.4775 4.32962 25.2883 4.3974 26.1C4.62065 28.7828 4.84291 31.4666 5.06717 34.1494C5.1459 35.0899 5.23062 36.0294 5.31634 37.0199C9.46155 37.0199 13.5709 37.0199 17.7002 37.0199C17.6992 38.3668 17.6992 39.6578 17.6992 41.0106ZM32.5199 3.99463C32.4511 4.7824 32.4162 5.51325 32.3195 6.23612C32.0255 8.42669 31.1684 10.4026 30.0292 12.2817C28.8282 14.2625 28.2491 16.4451 28.0976 18.7495C28.0787 19.0311 28.1414 19.2088 28.4125 19.3416C28.888 19.5742 29.3534 19.8328 29.8029 20.1124C30.082 20.2861 30.3003 20.2572 30.5763 20.1004C31.873 19.3636 33.1857 18.6557 34.4814 17.9178C34.7445 17.7681 34.9388 17.7631 35.2049 17.9078C36.5724 18.6537 37.9558 19.3685 39.3213 20.1164C39.6203 20.2801 39.8485 20.2831 40.1366 20.1024C40.614 19.8039 41.1063 19.5253 41.6136 19.2827C41.9455 19.1239 42.0582 18.9262 42.0352 18.5548C41.8887 16.1436 41.2259 13.8941 40.003 11.8094C38.9146 9.9543 38.2189 7.96641 38.0405 5.81178C37.9907 5.20673 37.9548 4.59968 37.912 3.99263C36.095 3.99463 34.3089 3.99463 32.5199 3.99463ZM19.4713 19.5622C19.4862 19.4754 19.5052 19.4384 19.4952 19.4145C18.8424 17.9098 18.1915 16.4032 17.5247 14.9045C17.4649 14.7698 17.3224 14.617 17.1888 14.58C16.3606 14.3554 15.5334 14.0519 14.6892 13.983C13.4633 13.8821 12.2234 13.957 10.9008 13.957C10.5978 12.8348 10.2589 11.5807 9.91204 10.2988C11.5237 9.85345 13.1094 9.79355 14.8008 9.94331C13.4892 7.93047 12.1626 6.07238 10.2599 4.72049C9.64795 4.28617 8.97616 3.90777 8.19276 4.0116C7.17714 4.14739 6.62299 4.86127 6.25621 5.74888C5.82564 6.79225 5.67414 7.89053 5.66019 9.01077C5.62132 12.0171 6.29609 14.9025 7.16619 17.7521C7.21204 17.9008 7.3745 18.0456 7.51902 18.1275C8.70209 18.7964 9.89911 19.4414 11.0782 20.1164C11.3652 20.2801 11.5775 20.2522 11.8516 20.0964C13.0765 19.3995 14.3224 18.7415 15.5394 18.0316C15.955 17.789 16.2699 17.7481 16.7045 18.0167C17.5885 18.5658 18.5214 19.0381 19.4713 19.5622Z" fill="#CCCCE9"/>
</svg>
