<svg width="54" height="54" viewBox="0 0 54 54" fill="none" xmlns="http://www.w3.org/2000/svg">
<path d="M0 32.3961C1.05775 31.4062 2.06597 30.4627 3.21327 29.3898C4.33317 30.5595 5.50681 31.8365 6.73628 33.0567C9.45017 35.7516 12.1894 38.4203 14.9296 41.089C15.0876 41.2426 15.3363 41.394 15.5438 41.3951C19.8275 41.413 24.1122 41.4077 28.3958 41.4077C28.4791 41.4077 28.5623 41.3961 28.6697 41.3877C28.6697 36.0693 28.6697 30.7814 28.6697 25.4357C21.6754 25.4357 14.682 25.4357 7.63915 25.4357C7.26093 16.666 10.2551 9.42259 17.5044 4.42922C25.5397 -1.10587 34.1523 -1.47614 42.5669 3.4478C50.8181 8.27602 54.3085 15.896 53.9787 25.4115C46.9443 25.4115 39.951 25.4115 32.9313 25.4115C32.9313 30.7572 32.9313 36.0451 32.9313 41.3909C39.9257 41.3909 46.919 41.3909 53.945 41.3909C53.945 42.8088 53.945 44.1689 53.945 45.588C52.5839 45.588 51.2079 45.588 49.7741 45.588C49.7741 48.4218 49.7741 51.1967 49.7741 54C48.3539 54 46.9917 54 45.5705 54C45.5705 51.2282 45.5705 48.4523 45.5705 45.6448C41.3269 45.6448 37.1433 45.6448 32.9186 45.6448C32.9186 48.427 32.9186 51.1893 32.9186 53.9905C31.5048 53.9905 30.1299 53.9905 28.715 53.9905C28.715 51.2219 28.715 48.4586 28.715 45.6542C24.6316 45.6542 20.5871 45.6542 16.4846 45.6542C16.4846 48.4197 16.4846 51.1956 16.4846 53.9989C15.0644 53.9989 13.7022 53.9989 12.261 53.9989C12.261 53.8191 12.261 53.635 12.261 53.4499C12.261 50.5919 12.2557 47.7349 12.2684 44.8769C12.2694 44.5361 12.1736 44.2962 11.927 44.0553C8.06478 40.2769 4.21202 36.488 0.356092 32.7022C0.267596 32.618 0.169619 32.5423 0 32.3961ZM24.5262 21.1765C28.7456 21.1765 32.8955 21.1765 37.0811 21.1765C37.0242 20.4065 36.9768 19.6734 36.9157 18.9412C36.6861 16.1621 36.2204 13.4272 35.3533 10.7701C34.7265 8.8472 33.9606 6.9927 32.6068 5.44536C31.3879 4.05159 30.2205 4.05685 28.989 5.44431C28.9542 5.48323 28.9163 5.5211 28.8889 5.56633C28.2968 6.53302 27.5951 7.45238 27.1358 8.47799C25.3322 12.4994 24.7496 16.7859 24.5262 21.1765ZM49.6455 21.187C49.1241 16.9416 47.4078 13.2904 44.479 10.2178C42.6406 8.2897 40.4851 6.81809 37.9735 5.86191C39.1018 8.26761 39.9109 10.7585 40.3587 13.342C40.8075 15.9339 41.0909 18.5552 41.4491 21.187C44.1135 21.187 46.8621 21.187 49.6455 21.187ZM23.7276 5.75672C20.664 7.0169 18.2019 8.82932 16.197 11.2529C13.8107 14.1372 12.3958 17.4423 11.9586 21.1912C14.7536 21.1912 17.5023 21.1912 20.2984 21.1912C20.5618 15.897 21.3551 10.7301 23.7276 5.75672Z" fill="#CCCCE9"/>
</svg>
