<svg width="38" height="55" viewBox="0 0 38 55" fill="none" xmlns="http://www.w3.org/2000/svg">
<path d="M16.8283 44.1483C16.8283 42.0884 16.8283 40.3932 16.8283 39.1873C13.6685 37.681 10.5383 36.6596 7.93265 34.8572C0.792416 29.9262 -1.80057 20.6779 1.27464 12.4339C4.2314 4.50744 12.2472 -0.625244 20.593 0.061401C29.1122 0.765212 36.1975 7.31838 37.6949 15.8886C39.5222 26.3342 32.9658 36.1661 22.7419 38.1959C21.5532 38.432 21.0075 38.8139 21.1133 40.1057C21.2148 41.3073 21.1344 42.5261 21.1344 44.1655C25.1022 41.3502 29.3575 42.1785 33.4945 42.1141C34.9961 48.324 30.1908 54.6797 23.8035 54.9158C20.6353 55.0316 17.4586 55.0231 14.2903 54.9201C8.00452 54.7098 3.75762 49.2981 4.36674 42.1184C8.5079 42.2343 12.7548 41.2901 16.8283 44.1483ZM16.8579 4.72201C10.1661 4.98809 4.25254 11.8245 4.2187 19.2274C4.18486 26.7462 10.0815 33.6727 16.6549 33.9431C18.1438 30.4154 15.7962 28.8275 13.1609 27.45C14.0788 26.1496 14.8402 25.0767 15.5762 24.0339C16.6337 24.6605 17.4459 25.4673 18.3342 25.5703C19.1252 25.6604 20.3858 25.1883 20.7326 24.5618C21.0625 23.9695 20.6691 22.725 20.2207 22.0126C19.95 21.5834 18.9687 21.5877 18.2961 21.4547C15.5805 20.9097 13.6896 19.4033 12.9282 16.6482C12.2303 14.1248 12.8013 11.5927 14.891 10.3482C17.4459 8.829 16.9171 6.85061 16.8579 4.72201ZM21.4094 4.70055C19.9331 8.21102 22.2004 9.83752 24.9076 11.1979C23.9939 12.4983 23.241 13.5754 22.4796 14.6569C21.5152 14.0647 20.7833 13.4939 19.9585 13.1334C18.4315 12.4596 16.7225 13.6441 16.9467 15.2148C17.1498 16.6439 18.1354 17.0902 19.4974 17.2404C22.3527 17.5537 24.2731 19.1459 25.1149 21.9826C25.8001 24.2871 25.136 27.2611 23.0549 28.4671C20.5211 29.9348 21.1048 31.9175 21.2909 34.0332C28.5073 33.2178 34.0105 26.4758 33.8329 18.8411C33.6679 11.6786 27.8517 5.10824 21.4094 4.70055ZM8.96474 46.5001C10.5637 49.8561 12.8098 51.0234 16.2869 50.4483C14.9967 47.3112 12.9029 46.1525 8.96474 46.5001ZM21.7901 50.4826C25.4871 50.989 28.0547 49.5385 28.9176 46.4571C25.0557 46.1997 22.9449 47.3927 21.7901 50.4826Z" fill="#CCCCE9"/>
</svg>
