<svg width="55" height="55" viewBox="0 0 55 55" fill="none" xmlns="http://www.w3.org/2000/svg">
<circle cx="27.5" cy="27.5" r="26.5" fill="#06B4FF" stroke="black" stroke-width="2"/>
<path fill-rule="evenodd" clip-rule="evenodd" d="M32.4307 40.3033L28.7072 30.3627L24.4436 40.3333C22.8307 40.2927 21.8954 39.3204 21.8954 39.3204L15.5407 19.3686C15.5407 19.3686 15.2901 18.3786 13.8713 18.3786H12.9995L13.5783 16.8751H21.6995V18.3786C21.6995 18.3786 20.893 19.028 21.0819 19.928C21.2724 20.828 24.523 33.7916 24.523 33.7916L27.6572 26.8545L26.203 22.2663C25.6454 20.8563 25.1866 19.4974 24.8213 19.1374C24.306 18.578 23.3672 18.3786 23.3672 18.3786V16.8751H33.373V18.3786H31.7177C31.7177 18.3786 30.846 18.5533 30.7701 19.8345C30.7542 20.0922 30.9042 20.9886 30.9042 20.9886L34.7866 33.7527C34.7866 33.7527 38.7748 26.4292 38.8313 24.8339C38.8895 23.2422 38.2719 20.6357 36.5301 19.5945C33.7436 17.9163 34.4478 14.5774 36.5954 13.3969C37.513 12.8939 38.3301 12.8745 39.2601 12.8745C42.5389 12.8745 42.9077 16.591 42.9077 16.591C43.1248 17.8722 42.9713 20.0516 42.3536 21.9733C40.7407 26.971 36.7489 35.9622 35.203 39.3857C33.9607 40.6192 32.4307 40.3033 32.4307 40.3033" fill="black"/>
</svg>
