<svg width="55" height="55" viewBox="0 0 55 55" fill="none" xmlns="http://www.w3.org/2000/svg">
<circle cx="27.5" cy="27.5" r="26.5" fill="#00C592" stroke="black" stroke-width="2"/>
<path d="M24.2479 16.7984C23.596 18.1476 23.0689 19.5534 22.6729 20.9984H26.4979V14.0234C25.5655 14.7844 24.7996 15.7289 24.2479 16.7984Z" fill="black"/>
<path d="M21.998 26.999C21.998 27.974 22.073 29.024 22.148 29.999H26.498V23.999H22.148C22.073 24.974 21.998 25.949 21.998 26.999Z" fill="black"/>
<path d="M24.2479 37.199C24.7996 38.2685 25.5655 39.2131 26.4979 39.974V32.999H22.6729C23.0689 34.4441 23.596 35.8499 24.2479 37.199Z" fill="black"/>
<path d="M31.748 37.199C32.3999 35.8499 32.927 34.4441 33.323 32.999H29.498V39.974C30.4304 39.2131 31.1963 38.2685 31.748 37.199Z" fill="black"/>
<path d="M31.748 16.7984C31.1963 15.7289 30.4304 14.7844 29.498 14.0234V20.9984H33.323C32.927 19.5534 32.3999 18.1476 31.748 16.7984Z" fill="black"/>
<path d="M33.998 26.999C33.998 25.949 33.923 24.974 33.848 23.999H29.498V29.999H33.848C33.923 29.024 33.998 27.974 33.998 26.999Z" fill="black"/>
<path d="M19.1477 23.999C19.0727 24.974 18.9977 25.949 18.9977 26.999C18.9977 28.049 19.0727 29.024 19.1477 29.999H11.7977C11.5828 29.0139 11.4821 28.0072 11.4977 26.999C11.4821 25.9908 11.5828 24.9842 11.7977 23.999H19.1477Z" fill="black"/>
<path d="M26.498 10.5737V10.7237C26.4398 10.7237 26.3824 10.7373 26.3303 10.7633C26.2783 10.7894 26.233 10.8272 26.198 10.8737H25.823C25.0601 11.2792 24.3541 11.7836 23.723 12.3737L23.423 12.6737C22.8142 13.3614 22.2858 14.1163 21.848 14.9237C21.6952 15.1321 21.5692 15.3589 21.473 15.5987L20.798 16.9487C20.7306 17.2106 20.6298 17.4626 20.498 17.6987L20.273 18.4487L20.048 19.1237C19.898 19.6487 19.748 20.3237 19.598 20.9237H12.623C12.997 19.9636 13.4485 19.0355 13.973 18.1487L14.273 17.7737C14.6582 17.1941 15.0843 16.6427 15.548 16.1237L15.923 15.7487C16.073 15.5987 16.148 15.4487 16.298 15.3737C16.6846 14.9573 17.1117 14.5804 17.573 14.2487C17.6332 14.1155 17.7398 14.0089 17.873 13.9487L18.098 13.7987L18.623 13.4237L19.073 13.1237L19.673 12.7487L20.123 12.4487L20.723 12.2237L21.173 11.9987C22.6748 11.3236 24.2663 10.8689 25.898 10.6487H26.498V10.5737Z" fill="black"/>
<path d="M26.498 43.274V43.424H25.898C24.2624 43.18 22.6709 42.7 21.173 41.999L20.723 41.774L20.123 41.474L19.673 41.249L19.073 40.874L18.623 40.574L18.098 40.199L17.873 39.974C17.723 39.974 17.648 39.899 17.573 39.749C17.1117 39.4173 16.6846 39.0405 16.298 38.624C16.148 38.549 16.073 38.399 15.923 38.249C15.773 38.099 15.698 37.949 15.548 37.874C15.0814 37.331 14.6552 36.7545 14.273 36.149C14.1997 35.9828 14.0982 35.8306 13.973 35.699C13.4343 34.8462 12.982 33.9417 12.623 32.999H19.598L20.048 34.799L20.273 35.474L20.498 36.224C20.6298 36.4601 20.7306 36.7122 20.798 36.974L21.473 38.324C21.5692 38.5639 21.6952 38.7907 21.848 38.999C22.2858 39.8065 22.8142 40.5614 23.423 41.249L23.723 41.474C24.3149 42.1104 25.0291 42.6206 25.823 42.974L26.123 43.124L26.498 43.274Z" fill="black"/>
<path d="M43.373 20.9987H36.398L35.948 19.1987L35.723 18.5237L35.498 17.7737C35.3663 17.5376 35.2654 17.2856 35.198 17.0237L34.523 15.6737C34.4269 15.4339 34.3009 15.2071 34.148 14.9987C33.7103 14.1913 33.1819 13.4364 32.573 12.7487L32.273 12.4487C31.642 11.8586 30.936 11.3542 30.173 10.9487H29.798C29.7631 10.9022 29.7178 10.8644 29.6658 10.8383C29.6137 10.8123 29.5563 10.7987 29.498 10.7987V10.5737H30.098C31.7337 10.8178 33.3252 11.2978 34.823 11.9987L35.273 12.2237L35.873 12.4487L36.323 12.7487L36.923 13.1237L37.373 13.4237L37.898 13.7987L38.123 13.9487C38.2562 14.0089 38.3629 14.1155 38.423 14.2487C38.8844 14.5804 39.3115 14.9573 39.698 15.3737L40.073 15.7487C40.223 15.8987 40.298 16.0487 40.448 16.1237C40.9147 16.6667 41.3408 17.2433 41.723 17.8487L42.023 18.2237C42.5476 19.1105 42.9991 20.0386 43.373 20.9987Z" fill="black"/>
<path d="M43.373 32.9979C43.0141 33.9406 42.5618 34.845 42.023 35.6979C41.8979 35.8294 41.7964 35.9817 41.723 36.1479C41.3408 36.7533 40.9147 37.3298 40.448 37.8729C40.298 37.9479 40.223 38.0979 40.073 38.2479L39.698 38.6229C39.3115 39.0393 38.8844 39.4161 38.423 39.7479C38.348 39.8979 38.273 39.9729 38.123 39.9729L37.898 40.1979L37.373 40.5729L36.923 40.8729L36.323 41.2479L35.873 41.4729L35.273 41.7729L34.823 41.9979C33.3213 42.673 31.7298 43.1277 30.098 43.3479H29.498V43.1979L29.873 43.0479L30.173 42.8979C30.9669 42.5444 31.6812 42.0342 32.273 41.3979L32.573 41.1729C33.1819 40.4852 33.7103 39.7303 34.148 38.9229C34.3009 38.7145 34.4269 38.4877 34.523 38.2479L35.198 36.8979C35.2654 36.636 35.3663 36.3839 35.498 36.1479L35.723 35.3979L35.948 34.7229L36.398 32.9229L43.373 32.9979Z" fill="black"/>
<path d="M44.4967 26.999C44.5122 28.0072 44.4116 29.0139 44.1967 29.999H36.8467C36.9217 29.024 36.9967 28.049 36.9967 26.999C36.9967 25.949 36.9217 24.974 36.8467 23.999H44.1967C44.4116 24.9842 44.5122 25.9908 44.4967 26.999Z" fill="black"/>
</svg>
