<svg width="68" height="75" viewBox="0 0 68 75" fill="none" xmlns="http://www.w3.org/2000/svg">
<circle cx="33.6039" cy="41.3961" r="33.6039" fill="#F5E900"/>
<circle cx="33.6039" cy="33.6039" r="32.1039" fill="black" stroke="black" stroke-width="3"/>
<path fill-rule="evenodd" clip-rule="evenodd" d="M48.2511 37.8285C48.2511 36.7691 47.8303 35.7532 47.0813 35.0041C46.3322 34.2551 45.3163 33.8342 44.2569 33.8342H44.2525C43.1931 33.8342 42.1772 34.2551 41.4281 35.0041C40.6791 35.7532 40.2583 36.7691 40.2583 37.8285C40.2583 39.6143 40.2583 41.9471 40.2583 43.7329C40.2583 44.7922 40.6791 45.8081 41.4281 46.5572C42.1772 47.3063 43.1931 47.7271 44.2525 47.7271H44.2569C45.3163 47.7271 46.3322 47.3063 47.0813 46.5572C47.8303 45.8081 48.2511 44.7922 48.2511 43.7329V37.8285ZM28.9601 37.8285C28.9602 36.7691 28.5393 35.7532 27.7903 35.0041C27.0412 34.2551 26.0253 33.8342 24.966 33.8342H24.9615C23.9022 33.8342 22.8862 34.2551 22.1371 35.0041C21.3881 35.7532 20.9673 36.7691 20.9673 37.8285C20.9673 39.6143 20.9673 41.9471 20.9673 43.7329C20.9673 44.7922 21.3881 45.8081 22.1371 46.5572C22.8862 47.3063 23.9022 47.7271 24.9615 47.7271H24.966C26.0253 47.7271 27.0412 47.3063 27.7903 46.5572C28.5393 45.8081 28.9602 44.7922 28.9601 43.7329V37.8285ZM45.6597 37.8285V43.7329C45.6597 44.1049 45.5119 44.4617 45.2488 44.7248C44.9858 44.9879 44.629 45.1357 44.257 45.1357C44.2569 45.1357 44.2525 45.1357 44.2525 45.1357C43.8804 45.1357 43.5236 44.9879 43.2605 44.7248C42.9974 44.4617 42.8497 44.1049 42.8497 43.7329V37.8285C42.8497 37.4564 42.9974 37.0996 43.2605 36.8365C43.5236 36.5734 43.8804 36.4257 44.2524 36.4256C44.2525 36.4256 44.2569 36.4256 44.2569 36.4256C44.629 36.4257 44.9858 36.5734 45.2488 36.8365C45.5119 37.0996 45.6597 37.4564 45.6597 37.8285ZM26.3688 37.8285V43.7329C26.3688 44.1049 26.221 44.4617 25.9579 44.7248C25.6948 44.9879 25.338 45.1357 24.966 45.1357C24.9659 45.1357 24.9615 45.1357 24.9615 45.1357C24.5894 45.1357 24.2326 44.9879 23.9696 44.7248C23.7065 44.4617 23.5587 44.1049 23.5587 43.7329V37.8285C23.5587 37.4564 23.7065 37.0996 23.9696 36.8365C24.2326 36.5734 24.5894 36.4257 24.9614 36.4256C24.9616 36.4256 24.966 36.4256 24.966 36.4256C25.338 36.4257 25.6948 36.5734 25.9579 36.8365C26.221 37.0996 26.3688 37.4564 26.3688 37.8285Z" fill="#F5E900"/>
<path fill-rule="evenodd" clip-rule="evenodd" d="M51.6854 40.8575V31.6748C51.6854 23.3262 44.9175 16.5583 36.5689 16.5583C35.2682 16.5583 33.9494 16.5583 32.6487 16.5583C24.3001 16.5583 17.5322 23.3262 17.5322 31.6748C17.5322 36.557 17.5322 40.8575 17.5322 40.8575C17.5322 41.5727 18.1128 42.1532 18.8279 42.1532C19.543 42.1532 20.1236 41.5727 20.1236 40.8575V31.6749C20.1237 24.7574 25.7313 19.1497 32.6487 19.1497C33.9494 19.1497 35.2682 19.1497 36.5689 19.1497C43.4863 19.1497 49.094 24.7574 49.094 31.6747C49.094 31.6749 49.094 40.8575 49.094 40.8575C49.094 41.5727 49.6746 42.1532 50.3897 42.1532C51.1048 42.1532 51.6854 41.5727 51.6854 40.8575ZM30.7506 23.0079H37.6954C38.4105 23.0079 38.9911 22.4273 38.9911 21.7122C38.9911 20.9971 38.4105 20.4165 37.6954 20.4165H30.7506C30.0355 20.4165 29.4549 20.9971 29.4549 21.7122C29.4549 22.4273 30.0355 23.0079 30.7506 23.0079Z" fill="#F5E900"/>
</svg>
