<svg width="80" height="89" viewBox="0 0 80 89" fill="none" xmlns="http://www.w3.org/2000/svg">
<path d="M71.3542 16.8378L43.0196 4.69451C41.0914 3.8681 38.9087 3.8681 36.9804 4.69451L8.64608 16.8378C5.50625 18.1835 3.63579 21.4444 4.05953 24.8341L6.99618 48.3273C7.9906 56.2828 11.97 63.5634 18.1291 68.6962L35.0928 82.8323C37.9357 85.2014 42.0644 85.2014 44.9072 82.8323L61.8709 68.6962C68.0299 63.5634 72.0096 56.2828 73.0037 48.3273L75.9404 24.8341C76.3644 21.4444 74.4936 18.1835 71.3542 16.8378Z" stroke="#00C592" stroke-width="7" stroke-linecap="round"/>
<path d="M25.6279 44.8538L37.934 57.1598C39.0028 58.2287 40.7826 58.0528 41.621 56.7948L59.1634 30.4814" stroke="black" stroke-width="7" stroke-linecap="round"/>
</svg>
