<svg width="32" height="26" viewBox="0 0 32 26" fill="none" xmlns="http://www.w3.org/2000/svg">
<path fill-rule="evenodd" clip-rule="evenodd" d="M27.8668 25.2104H3.98097C1.78234 25.2104 0 23.3686 0 21.0967V4.64212C0 2.37021 1.78234 0.528464 3.98097 0.528464H29.1938C30.3848 0.457866 31.475 1.21706 31.8587 2.38424C32.2425 3.55142 31.8254 4.83974 30.8393 5.53341L18.4983 15.3376C17.0053 16.5236 14.9124 16.4663 13.4822 15.2005L5.82549 8.42668C5.46518 8.10825 5.29665 7.61538 5.38336 7.13373C5.47008 6.65209 5.79888 6.25483 6.24591 6.09161C6.69293 5.92839 7.19027 6.024 7.55058 6.34243L15.2073 13.1162C15.6946 13.5247 16.3921 13.5247 16.8793 13.1162L29.2203 3.31204L3.98097 3.2709C3.2481 3.2709 2.65398 3.88481 2.65398 4.64212V21.0967C2.65398 21.854 3.2481 22.4679 3.98097 22.4679H27.8668C28.5997 22.4679 29.1938 21.854 29.1938 21.0967V10.127C29.1938 9.36969 29.7879 8.75577 30.5208 8.75577C31.2537 8.75577 31.8478 9.36969 31.8478 10.127V21.0967C31.8478 23.3686 30.0654 25.2104 27.8668 25.2104Z" fill="black"/>
</svg>
