<svg width="32" height="43" viewBox="0 0 32 43" fill="none" xmlns="http://www.w3.org/2000/svg">
<path fill-rule="evenodd" clip-rule="evenodd" d="M15.9939 21.289C12.0666 21.289 8.88281 18.1807 8.88281 14.3464C8.88281 10.5121 12.0666 7.40381 15.9939 7.40381C19.9213 7.40381 23.1051 10.5121 23.1051 14.3464C23.1051 18.1807 19.9213 21.289 15.9939 21.289ZM16.0009 10.8755C14.0372 10.8755 12.4453 12.4297 12.4453 14.3468C12.4453 16.264 14.0372 17.8182 16.0009 17.8182C17.9646 17.8182 19.5564 16.264 19.5564 14.3468C19.5564 12.4297 17.9646 10.8755 16.0009 10.8755ZM16.9956 41.8222C17.3874 41.5648 17.6582 41.1658 17.7482 40.7132C17.8383 40.2606 17.7402 39.7916 17.4756 39.4097C4.33778 20.3174 3.55556 18.9809 3.55556 14.3467C3.55556 10.1638 6.86222 3.93275 16 3.93275C25.1378 3.93275 28.4444 10.1638 28.4444 14.3467C28.4444 18.1825 28.1067 19.5537 19.2711 32.5191C18.7909 33.3121 19.0289 34.3332 19.8133 34.8452C20.5976 35.3573 21.6551 35.1819 22.2222 34.4457C30.8089 21.8795 32 19.4322 32 14.3467C32 8.98352 27.6622 0.461426 16 0.461426C4.33778 0.461426 0 8.98352 0 14.3467C0 20.1438 1.22667 22.1051 14.5244 41.3536C14.7881 41.7362 15.1968 42.0006 15.6604 42.0885C16.124 42.1764 16.6044 42.0806 16.9956 41.8222Z" fill="black"/>
</svg>
