<svg width="69" height="75" viewBox="0 0 69 75" fill="none" xmlns="http://www.w3.org/2000/svg">
<circle cx="34.5" cy="40.5" r="34.5" fill="#00C592"/>
<circle cx="34.5" cy="34.5" r="34.5" fill="black"/>
<path d="M51.625 37.75H39.75V40.125H51.625V37.75Z" fill="#00C592"/>
<path d="M46.875 42.5H39.75V44.875H46.875V42.5Z" fill="#00C592"/>
<path d="M51.6251 34.1874V32.9999C51.6219 29.5511 50.5453 26.1889 48.5446 23.3797C46.544 20.5706 43.7185 18.4539 40.4603 17.3233C37.2021 16.1928 33.6728 16.1045 30.3621 17.0707C27.0515 18.0369 24.1237 20.0096 21.985 22.7152C19.8464 25.4208 18.603 28.725 18.4273 32.1693C18.2517 35.6136 19.1525 39.0271 21.0048 41.9362C22.8572 44.8453 25.5691 47.1057 28.7643 48.4036C31.9595 49.7016 35.4795 49.9728 38.8358 49.1796L38.2895 46.8683C37.2115 47.1225 36.1077 47.2505 35.0001 47.2499C34.7745 47.2499 34.5548 47.2278 34.3316 47.2175C31.7549 43.3547 30.3483 38.8302 30.2809 34.1874H51.6251ZM49.2008 31.8124H42.0956C41.9635 27.4371 40.8371 23.1493 38.8018 19.274C41.6068 20.0543 44.1063 21.6735 45.965 23.9146C47.8237 26.1557 48.9528 28.9114 49.2008 31.8124ZM35.6687 18.7823C38.2454 22.645 39.6519 27.1696 39.7194 31.8124H30.2809C30.3483 27.1696 31.7549 22.645 34.3316 18.7823C34.5548 18.772 34.7745 18.7499 35.0001 18.7499C35.2258 18.7499 35.4454 18.772 35.6687 18.7823ZM31.1985 19.274C29.1632 23.1493 28.0368 27.4371 27.9047 31.8124H20.7994C21.0475 28.9114 22.1766 26.1557 24.0353 23.9146C25.894 21.6735 28.3934 20.0543 31.1985 19.274ZM31.1985 46.7257C28.3934 45.9455 25.894 44.3262 24.0353 42.0852C22.1766 39.8441 21.0475 37.0883 20.7994 34.1874H27.9047C28.0368 38.5626 29.1632 42.8504 31.1985 46.7257Z" fill="#00C592"/>
</svg>
