<svg width="1411" height="757" viewBox="0 0 1411 757" fill="none" xmlns="http://www.w3.org/2000/svg">
<path fill-rule="evenodd" clip-rule="evenodd" d="M641.508 457.61L620.534 489.781L479.23 417.765L456.323 470.74L608.484 566.686C629.742 580.1 657.309 573.961 671.52 552.646L717.276 484.154L641.508 457.61Z" fill="#F5E900"/>
<path fill-rule="evenodd" clip-rule="evenodd" d="M791.964 485.177L899.221 685.936L954.583 671.044L859.149 447.265L791.964 485.177Z" fill="#F5E900"/>
<path fill-rule="evenodd" clip-rule="evenodd" d="M884.415 660.016L899.193 685.935L955.635 671.043L943.017 644.612L884.415 660.016Z" fill="white"/>
<path d="M899.193 687.186C898.795 687.186 898.397 686.958 898.17 686.56L883.391 660.641C883.221 660.3 883.164 659.902 883.334 659.504C883.505 659.163 883.789 658.879 884.13 658.766L942.732 643.362C943.244 643.248 943.812 643.476 944.096 643.987L956.715 670.418C956.885 670.759 956.885 671.157 956.715 671.498C956.544 671.839 956.26 672.066 955.919 672.18L899.477 687.129C899.42 687.129 899.306 687.186 899.193 687.186ZM886.233 660.812L899.761 684.514L953.93 670.19L942.391 646.033L886.233 660.812Z" fill="#00004B"/>
<path fill-rule="evenodd" clip-rule="evenodd" d="M954.612 671.043L962.456 685.935C1005.26 684.457 1029.41 699.292 1034.98 730.498L922.27 755.28L899.25 685.935L954.612 671.043Z" fill="#F96A00"/>
<path d="M925.055 745.731C924.487 745.731 924.032 745.333 923.918 744.765C923.805 744.082 924.202 743.457 924.828 743.287L1026.51 719.584C1027.14 719.414 1027.76 719.869 1027.94 720.551C1028.05 721.233 1027.65 721.858 1027.03 722.029L925.339 745.731C925.226 745.731 925.169 745.731 925.055 745.731Z" fill="#00004B"/>
<path d="M934.774 734.476C928.806 734.476 923.918 729.361 923.918 723.108C923.918 716.856 928.806 711.74 934.774 711.74C940.743 711.74 945.631 716.856 945.631 723.108C945.631 729.361 940.743 734.476 934.774 734.476ZM934.774 714.185C930.114 714.185 926.248 718.163 926.248 723.108C926.248 727.997 930.057 732.032 934.774 732.032C939.492 732.032 943.3 728.054 943.3 723.108C943.244 718.163 939.435 714.185 934.774 714.185Z" fill="#00004B"/>
<path d="M950.235 709.581C950.008 709.581 949.781 709.524 949.61 709.353C949.042 708.955 948.928 708.216 949.269 707.648L960.125 690.255C960.466 689.687 961.205 689.516 961.774 689.914C962.342 690.312 962.456 691.051 962.115 691.619L951.258 709.012C950.974 709.41 950.633 709.581 950.235 709.581Z" fill="#00004B"/>
<path d="M965.354 709.581C965.127 709.581 964.9 709.524 964.729 709.353C964.161 708.955 964.047 708.216 964.388 707.648L975.245 690.255C975.586 689.687 976.325 689.516 976.893 689.914C977.461 690.312 977.575 691.051 977.234 691.619L966.378 709.012C966.093 709.41 965.695 709.581 965.354 709.581Z" fill="#00004B"/>
<path d="M922.27 756.53C921.758 756.53 921.303 756.189 921.133 755.678L898.113 686.333C897.999 685.992 898.056 685.651 898.17 685.367C898.34 685.082 898.624 684.855 898.909 684.741L954.271 669.849C954.782 669.736 955.351 669.963 955.578 670.475L963.081 684.685C984.282 684.059 1001.11 687.47 1013.21 694.916C1025.55 702.476 1033.22 714.412 1036.06 730.27C1036.18 730.952 1035.78 731.578 1035.15 731.691L922.497 756.474C922.44 756.53 922.327 756.53 922.27 756.53ZM900.727 686.788L923.009 753.859L1033.56 729.531C1027.71 699.975 1003.84 685.708 962.456 687.186C962.001 687.186 961.603 686.958 961.376 686.56L953.93 672.521L900.727 686.788Z" fill="#00004B"/>
<path d="M632.755 575.041C624.059 575.041 615.476 572.54 607.859 567.766L455.699 471.82C455.187 471.479 454.96 470.797 455.244 470.228L478.15 417.253C478.264 416.969 478.548 416.742 478.833 416.628C479.117 416.514 479.458 416.514 479.742 416.685L620.137 488.19L640.542 456.871C640.827 456.416 641.395 456.246 641.906 456.416L717.674 483.017C718.015 483.131 718.299 483.415 718.413 483.813C718.527 484.211 718.47 484.609 718.243 484.893L672.486 553.385C665.438 563.957 654.923 571.233 642.873 573.904C639.519 574.643 636.166 575.041 632.755 575.041ZM457.859 470.285L609.11 565.663C629.743 578.679 656.742 572.654 670.554 551.964L715.401 484.836L642.02 459.031L621.558 490.463C621.217 490.975 620.591 491.145 620.08 490.861L479.799 419.47L457.859 470.285Z" fill="#00004B"/>
<path fill-rule="evenodd" clip-rule="evenodd" d="M522.214 436.607L495.035 426.766L460.896 476.188L486.822 487.897L522.214 436.607Z" fill="white"/>
<path d="M486.834 489.148C486.674 489.134 486.514 489.12 486.361 489.026L460.434 477.317C460.084 477.165 459.829 476.861 459.777 476.533C459.688 476.163 459.76 475.806 459.948 475.499L494.007 426.07C494.289 425.611 494.871 425.42 495.337 425.622L522.553 435.507C522.903 435.659 523.202 435.927 523.29 436.298C523.379 436.669 523.344 437.069 523.112 437.412L487.764 488.665C487.532 489.008 487.154 489.176 486.834 489.148ZM462.757 475.664L486.388 486.406L520.346 437.21L495.477 428.176L462.757 475.664Z" fill="#00004B"/>
<path fill-rule="evenodd" clip-rule="evenodd" d="M461.724 475.493L446.565 469.366C414.733 499.342 387.109 504.268 363.694 484.144L434.86 389.184L495.036 426.766L461.724 475.493Z" fill="#F96A00"/>
<path d="M375.93 487.232C375.69 487.211 375.413 487.147 375.187 486.965C374.698 486.56 374.565 485.781 374.977 485.212L438.356 398.568C438.725 398.035 439.503 397.902 440.029 398.351C440.518 398.757 440.651 399.535 440.239 400.104L376.897 486.792C376.672 487.055 376.294 487.224 375.93 487.232Z" fill="#00004B"/>
<path d="M445.01 433.645C444.69 433.617 444.406 433.633 444.006 433.598C441.123 433.346 438.506 431.906 436.613 429.562C434.72 427.218 433.887 424.28 434.11 421.274C434.376 418.231 435.706 415.483 437.934 413.539C440.161 411.596 442.989 410.633 445.872 410.885C448.755 411.137 451.372 412.577 453.265 414.921C455.158 417.265 455.99 420.203 455.768 423.209C455.501 426.252 454.172 429 451.944 430.944C450.014 432.711 447.557 433.586 445.01 433.645ZM445.014 413.311C442.998 413.296 441.116 414.06 439.548 415.375C437.8 416.917 436.766 419.045 436.556 421.448C436.389 423.813 437.074 426.133 438.528 427.954C439.983 429.776 442.024 430.883 444.303 431.122C446.545 431.319 448.748 430.583 450.453 429.078C452.202 427.537 453.235 425.408 453.445 423.006C453.612 420.64 452.927 418.321 451.473 416.499C450.019 414.677 447.977 413.571 445.698 413.331C445.458 413.31 445.218 413.289 445.014 413.311Z" fill="#00004B"/>
<path d="M444.573 465.843C443.969 465.831 443.444 465.381 443.42 464.734L441.028 444.11C440.968 443.418 441.424 442.813 442.035 442.745C442.69 442.641 443.252 443.134 443.356 443.789L445.748 464.413C445.808 465.104 445.352 465.71 444.741 465.777C444.697 465.814 444.617 465.807 444.573 465.843Z" fill="#00004B"/>
<path d="M432.993 476.006C432.389 475.993 431.863 475.544 431.839 474.896L429.448 454.272C429.387 453.581 429.844 452.975 430.455 452.908C431.109 452.804 431.671 453.297 431.775 453.951L434.167 474.575C434.228 475.266 433.771 475.872 433.16 475.94C433.073 476.013 433.073 476.013 432.993 476.006Z" fill="#00004B"/>
<path d="M394.036 497.491C382.981 497.492 372.574 493.313 362.969 485.049C362.48 484.643 362.39 483.829 362.796 483.34L433.918 388.416C434.281 387.963 434.942 387.779 435.438 388.105L495.614 425.686C495.92 425.875 496.096 426.172 496.148 426.5C496.2 426.827 496.128 427.184 495.94 427.49L462.628 476.218C462.346 476.678 461.764 476.869 461.218 476.659L446.723 470.792C430.908 485.546 415.858 494.316 402.046 496.779C399.421 497.276 396.699 497.481 394.036 497.491ZM365.367 483.928C387.976 502.649 414.981 497.427 445.798 468.452C446.146 468.159 446.597 468.078 447.027 468.236L461.326 474.046L493.305 427.179L435.164 390.784L365.367 483.928Z" fill="#00004B"/>
<path d="M899.221 687.186C898.823 687.186 898.425 686.959 898.198 686.561L790.941 485.802C790.77 485.518 790.77 485.177 790.827 484.836C790.941 484.495 791.111 484.268 791.395 484.097L858.58 446.185C858.864 446.014 859.205 446.014 859.547 446.128C859.831 446.242 860.115 446.469 860.229 446.81L955.72 670.589C955.833 670.93 955.833 671.328 955.72 671.612C955.549 671.953 955.265 672.181 954.924 672.294L899.562 687.186C899.391 687.13 899.335 687.186 899.221 687.186ZM793.555 485.632L899.789 684.458L952.935 670.134L858.58 448.913L793.555 485.632Z" fill="#00004B"/>
<path fill-rule="evenodd" clip-rule="evenodd" d="M786.45 495.693C824.192 493.476 852.612 478.356 871.71 450.164L784.574 308.916L705.51 354.616L786.45 495.693Z" fill="white"/>
<path fill-rule="evenodd" clip-rule="evenodd" d="M764.964 383.888L776.617 478.356L738.647 412.649L764.964 383.888Z" fill="#00004B"/>
<path d="M786.451 496.943C786.053 496.943 785.655 496.716 785.427 496.318L704.487 355.241C704.317 354.957 704.26 354.616 704.374 354.275C704.43 353.934 704.658 353.649 704.942 353.536L784.006 307.836C784.575 307.495 785.257 307.723 785.541 308.234L872.677 449.482C872.961 449.88 872.904 450.448 872.62 450.846C863.014 464.999 850.85 476.083 836.527 483.699C822.26 491.316 805.378 495.749 786.451 496.829C786.507 496.886 786.451 496.943 786.451 496.943ZM707.102 355.07L787.076 494.385C823.567 492.112 851.589 477.22 870.233 450.107L784.12 310.508L707.102 355.07Z" fill="#00004B"/>
<path fill-rule="evenodd" clip-rule="evenodd" d="M782.244 331.027L728.189 495.693L625.649 457.61L673.281 320.284L782.244 331.027Z" fill="white"/>
<path d="M728.189 496.943C728.076 496.943 727.905 496.943 727.791 496.886L625.252 458.803C624.968 458.69 624.74 458.462 624.57 458.178C624.456 457.894 624.399 457.553 624.513 457.212L672.145 319.886C672.316 319.375 672.827 319.034 673.339 319.091L782.244 329.833C782.585 329.89 782.926 330.061 783.154 330.402C783.324 330.743 783.381 331.141 783.267 331.482L729.269 496.147C729.156 496.431 728.928 496.716 728.644 496.886C728.53 496.886 728.36 496.943 728.189 496.943ZM627.185 456.814L727.45 494.101L780.596 332.107L674.078 321.592L627.185 456.814Z" fill="#00004B"/>
<path fill-rule="evenodd" clip-rule="evenodd" d="M816.499 148.912L1009.98 95.482L1023.85 142.546L837.075 216.267L816.499 148.912Z" fill="#06B8FF"/>
<path fill-rule="evenodd" clip-rule="evenodd" d="M931.713 122.765L942.797 131.575L995.374 114.296L996.738 102.814L931.713 122.765Z" fill="#06B8FF"/>
<path d="M942.797 132.826C942.57 132.826 942.286 132.712 942.058 132.598L930.974 123.845C930.463 123.447 930.349 122.651 930.747 122.083C931.145 121.515 931.884 121.458 932.395 121.856L942.968 130.268L994.237 113.443L995.545 102.701C995.602 102.019 996.227 101.564 996.852 101.621C997.477 101.734 997.932 102.303 997.875 102.985L996.511 114.523C996.454 114.978 996.113 115.433 995.715 115.546L943.138 132.826C943.025 132.769 942.911 132.826 942.797 132.826Z" fill="#00004B"/>
<path d="M888.458 154.871C888.288 154.871 888.117 154.814 888.004 154.757L878.625 150.437C878 150.153 877.773 149.414 878 148.789C878.284 148.164 878.966 147.88 879.535 148.164L888.345 152.256L905.681 142.082L907.329 132.703C907.443 132.021 908.068 131.567 908.693 131.737C909.319 131.851 909.773 132.533 909.66 133.158L907.898 143.105C907.841 143.446 907.614 143.787 907.329 143.958L888.97 154.757C888.856 154.814 888.686 154.871 888.458 154.871Z" fill="#00004B"/>
<path d="M897.553 183.575C897.496 183.575 897.439 183.575 897.439 183.575C896.814 183.518 896.302 182.893 896.416 182.211L897.553 171.525C897.61 171.127 897.78 170.786 898.121 170.616L916.196 159.361C916.481 159.191 916.878 159.134 917.22 159.248L926.314 162.658C926.939 162.885 927.223 163.567 927.053 164.25C926.825 164.875 926.143 165.216 925.518 164.988L916.935 161.805L899.826 172.434L898.747 182.495C898.633 183.064 898.121 183.575 897.553 183.575Z" fill="#00004B"/>
<path d="M901.475 190.291C884.138 190.291 870.042 175.513 870.042 157.381C870.042 139.249 884.138 124.47 901.475 124.47C918.811 124.47 932.907 139.249 932.907 157.381C932.907 175.513 918.754 190.291 901.475 190.291ZM901.475 126.915C885.446 126.915 872.429 140.556 872.429 157.381C872.429 174.205 885.446 187.847 901.475 187.847C917.503 187.847 930.52 174.205 930.52 157.381C930.52 140.556 917.503 126.915 901.475 126.915Z" fill="#00004B"/>
<path d="M837.075 217.517C836.904 217.517 836.734 217.461 836.563 217.404C836.279 217.233 836.052 217.006 835.938 216.665L815.362 149.253C815.248 148.912 815.305 148.571 815.476 148.286C815.646 148.002 815.873 147.775 816.214 147.661L1009.7 94.2315C1010.32 94.061 1010.95 94.402 1011.12 95.0841L1024.99 142.148C1025.16 142.773 1024.87 143.455 1024.25 143.682L837.529 217.461C837.359 217.517 837.245 217.517 837.075 217.517ZM817.977 149.764L837.814 214.675L1022.37 141.807L1009.19 97.0167L817.977 149.764Z" fill="#00004B"/>
<path fill-rule="evenodd" clip-rule="evenodd" d="M1007.78 96.5674C1029.02 85.008 1042.5 78.9414 1048.16 78.3391C1056.62 77.4461 1083.35 85.264 1084.48 90.1196C1085.23 93.373 1077.58 94.7984 1061.54 94.3956C1064.58 98.322 1064.32 101.846 1060.72 105.017C1063.2 108.221 1062.38 111.686 1058.31 115.44C1061.32 118.753 1060.66 122.635 1056.27 126.93C1051.89 131.225 1044.65 134.662 1034.55 137.162L1015.83 144.009C1010.37 138.232 1006.72 131.468 1004.95 123.621C1003.08 115.843 1004.03 106.809 1007.78 96.5674Z" fill="#06B8FF"/>
<path fill-rule="evenodd" clip-rule="evenodd" d="M1030.23 97.1256C1036.92 93.0451 1042.39 91.744 1046.71 93.124C1053.23 95.2469 1049.08 104.598 1037.93 106.628C1036.87 113.237 1034.02 117.038 1029.28 117.976L1030.23 97.1256Z" fill="#06B8FF"/>
<path d="M1029.33 119.252C1028.8 119.271 1028.26 118.831 1028.19 118.267C1028.06 117.597 1028.5 116.936 1029.1 116.819C1033.35 115.928 1035.82 112.562 1036.8 106.433C1036.91 105.905 1037.26 105.518 1037.78 105.422C1045.04 104.101 1048.5 99.8014 1048.66 97.1372C1048.79 95.4386 1047.49 94.6221 1046.41 94.3282C1042.44 93.0204 1037.22 94.3366 1030.85 98.207C1030.27 98.5288 1029.57 98.3846 1029.22 97.7274C1028.9 97.1479 1029.07 96.3943 1029.68 96.0233C1036.61 91.7536 1042.45 90.3977 1047.09 91.8989C1049.69 92.7424 1051.15 94.7653 1051.03 97.2534C1050.77 101.109 1046.5 105.997 1038.99 107.634C1037.73 114.256 1034.57 118.14 1029.57 119.19C1029.49 119.211 1029.41 119.231 1029.33 119.252Z" fill="#00004B"/>
<path d="M1049.58 107.709C1049.17 107.736 1048.73 107.48 1048.53 107.035C1048.21 106.455 1048.46 105.681 1049.04 105.359C1053.38 102.946 1057.5 102.302 1061.24 103.545C1061.84 103.76 1062.23 104.445 1062.04 105.121C1061.84 105.797 1061.19 106.14 1060.59 105.925C1057.44 104.896 1053.97 105.452 1050.17 107.592C1049.94 107.655 1049.74 107.668 1049.58 107.709Z" fill="#00004B"/>
<path d="M1051.44 96.7688C1051.03 96.7952 1050.58 96.5394 1050.38 96.0944C1050.06 95.5148 1050.31 94.7404 1050.89 94.4187C1055.24 92.0057 1059.35 91.3613 1063.09 92.6047C1063.69 92.8189 1064.08 93.5045 1063.89 94.1805C1063.7 94.8564 1063.04 95.1989 1062.44 94.9848C1059.3 93.9555 1055.82 94.5111 1052.03 96.6516C1051.84 96.7424 1051.61 96.8049 1051.44 96.7688Z" fill="#00004B"/>
<path d="M1047.66 118.086C1047.25 118.112 1046.81 117.857 1046.61 117.411C1046.29 116.832 1046.54 116.058 1047.11 115.736C1051.46 113.323 1055.57 112.678 1059.32 113.922C1059.92 114.136 1060.31 114.822 1060.12 115.498C1059.92 116.174 1059.27 116.516 1058.67 116.302C1055.52 115.273 1052.05 115.828 1048.25 117.969C1048.07 118.06 1047.87 118.073 1047.66 118.086Z" fill="#00004B"/>
<path d="M1017.45 146.195C1016.99 146.192 1016.55 145.937 1016.35 145.492C1016.06 144.863 1016.33 144.166 1016.91 143.844L1034.12 135.404C1034.2 135.384 1034.27 135.363 1034.35 135.342C1044.18 132.876 1051.28 129.559 1055.48 125.354C1057.48 123.361 1058.66 121.547 1058.93 119.934C1059.2 118.447 1058.73 116.993 1057.49 115.62C1057.25 115.351 1057.16 115.04 1057.16 114.709C1057.15 114.377 1057.32 114.082 1057.54 113.815C1062.26 109.514 1061.07 106.795 1059.8 105.139C1059.37 104.63 1059.49 103.848 1059.95 103.392C1063.09 100.677 1063.31 97.9145 1060.61 94.5183C1060.3 94.1433 1060.26 93.6566 1060.46 93.1852C1060.64 92.763 1061.06 92.4828 1061.52 92.4849C1079.07 92.9014 1082.5 90.9426 1083.11 90.1134C1083.19 89.9657 1083.25 89.8673 1083.21 89.712C1082.97 88.6534 1078.81 85.7302 1068.69 82.576C1060.46 79.9943 1052.07 78.4975 1048.31 78.8826C1042.85 79.4717 1028.93 85.6139 1006.95 97.2052C1006.37 97.527 1005.67 97.2559 1005.35 96.6764C1005.06 96.0476 1005.28 95.3224 1005.86 95.0007C1028.39 83.1369 1042.2 77.0647 1048.02 76.4208C1052.76 75.9413 1062.12 77.9289 1069.29 80.1675C1074.97 81.9342 1084.61 85.467 1085.46 89.1087C1085.66 90.012 1085.48 90.8925 1084.93 91.6232C1083.63 93.3024 1080 95.1475 1063.69 94.9833C1065.47 98.3753 1064.97 101.63 1062.15 104.466C1063.61 106.947 1064.01 110.46 1059.8 114.791C1061 116.467 1061.42 118.352 1061.1 120.268C1060.69 122.459 1059.33 124.695 1056.98 127.074C1052.51 131.517 1045.09 135.044 1034.88 137.614L1017.77 145.984C1017.81 146.14 1017.66 146.181 1017.45 146.195Z" fill="#00004B"/>
<path fill-rule="evenodd" clip-rule="evenodd" d="M769.254 95.4356L755.106 136.136C756.425 142.483 762.663 147.778 773.822 152.021C784.98 156.264 793.27 155.591 798.764 149.969L805.166 109.111L769.254 95.4356Z" fill="#F5E900"/>
<path fill-rule="evenodd" clip-rule="evenodd" d="M802.107 124.33L800.195 136.397L781.359 119.016L802.107 124.33Z" fill="#00004B"/>
<path d="M786.641 156.021C782.775 156.006 778.323 155.111 773.448 153.216C761.969 148.856 755.434 143.211 753.965 136.446C753.936 136.194 753.96 135.961 754.038 135.747L768.186 95.0468C768.303 94.7263 768.507 94.4981 768.798 94.3623C769.09 94.2264 769.395 94.2168 769.716 94.3334L805.628 108.009C806.162 108.204 806.487 108.806 806.4 109.379L799.997 150.237C799.953 150.523 799.822 150.718 799.638 150.892C796.218 154.305 791.89 156.057 786.641 156.021ZM756.325 136.277C757.751 141.998 763.766 146.909 774.211 150.953C784.621 154.923 792.493 154.401 797.628 149.435L803.811 110.009L769.929 97.0723L756.325 136.277Z" fill="#00004B"/>
<path fill-rule="evenodd" clip-rule="evenodd" d="M827.419 76.5022C834.181 66.5637 836.875 55.507 835.465 43.2593C833.324 24.8781 811.508 16.5142 804.871 28.4341C791.164 21.3886 781.65 23.4302 776.349 34.5056C760.596 34.5787 752.648 43.7836 752.4 62.0816C752.152 80.3796 759.626 95.7418 774.768 108.149L827.419 76.5022Z" fill="#00004B"/>
<path fill-rule="evenodd" clip-rule="evenodd" d="M832.322 65.5239C829.81 85.0547 825.906 100.268 820.556 111.144C812.558 127.468 782.113 132.84 767.234 98.2693C758.233 92.0896 754.913 85.256 757.402 77.7539C761.072 66.5081 774.216 69.7802 776.729 78.4977L779.097 68.1694C791.668 73.3498 799.886 71.3806 803.841 62.1744C815.16 65.8102 823.722 64.3899 829.507 57.9669L832.303 62.2508L832.322 65.5239Z" fill="#F5E900"/>
<path d="M774.803 89.1079C774.444 89.0981 774.124 88.9814 773.881 88.6511L767.536 80.656C767.119 80.1411 767.158 79.369 767.692 78.8981C768.207 78.4807 768.926 78.5003 769.324 79.0686L775.668 87.0637C776.086 87.5786 776.047 88.3507 775.512 88.8216C775.381 89.0158 775.109 89.0983 774.803 89.1079Z" fill="#00004B"/>
<path d="M798.831 125.133C798.598 125.109 798.345 125.138 798.165 125.133C784.976 124.809 773.421 115.341 766.331 99.0897C757.068 92.6331 753.69 85.2944 756.3 77.2923C757.987 72.1598 761.79 69.1889 766.534 69.2826C770.434 69.3711 774.187 71.5235 776.381 74.8021L777.956 67.8145C778.02 67.4746 778.243 67.193 778.554 67.0037C778.865 66.8144 779.224 66.8243 779.545 66.9409C791.528 71.9074 799.129 70.1372 802.798 61.5525C803.065 60.9845 803.648 60.7127 804.201 60.8537C815.146 64.3533 823.164 63.098 828.673 56.9371C828.896 56.6555 829.241 56.5391 829.6 56.5489C829.96 56.5587 830.295 56.8016 830.503 57.059L833.299 61.343C833.455 61.581 833.503 61.7801 833.513 62.0861L833.512 65.4125C833.492 65.466 833.526 65.5388 833.507 65.5922C830.976 85.1764 827.028 100.676 821.659 111.606C817.66 119.768 808.577 125.112 798.831 125.133ZM766.305 71.7397C762.673 71.7484 759.841 74.0445 758.543 78.1087C756.249 85.0767 759.35 91.3469 767.929 97.1914C768.124 97.3226 768.245 97.4877 768.347 97.7063C775.044 113.209 785.943 122.318 798.234 122.618C807.344 122.848 815.873 118.029 819.566 110.542C824.785 99.8596 828.689 84.6464 831.156 65.4021L831.182 62.5079L829.405 59.7442C823.513 65.463 815.136 66.7086 804.506 63.5052C800.24 72.2354 791.984 74.3114 779.937 69.6847L777.895 78.6195C777.754 79.173 777.312 79.5566 776.773 79.5418C776.234 79.5271 775.758 79.1725 775.593 78.6285C774.443 74.6413 770.622 71.6779 766.47 71.6184C766.412 71.7786 766.359 71.7592 766.305 71.7397Z" fill="#00004B"/>
<path d="M817.432 82.92C816.948 84.479 817.479 86.0294 818.618 86.383C819.758 86.7367 821.073 85.7596 821.557 84.2007C822.041 82.6418 821.51 81.0914 820.371 80.7377C819.232 80.3841 817.916 81.3611 817.432 82.92Z" fill="#00004B"/>
<path d="M801.343 79.9682C800.859 81.5271 801.39 83.0775 802.529 83.4312C803.668 83.7848 804.984 82.8078 805.468 81.2489C805.952 79.6899 805.421 78.1395 804.282 77.7859C803.142 77.4322 801.826 78.4093 801.343 79.9682Z" fill="#00004B"/>
<path d="M812.406 99.4675C809.745 99.4667 806.545 98.1206 802.895 94.1909C802.458 93.7294 802.443 92.9379 802.924 92.4475C803.405 91.9572 804.124 91.9768 804.595 92.5112C809.012 97.3249 812.941 98.3313 816.525 95.4624C817.04 95.0449 817.793 95.1374 818.191 95.7057C818.589 96.2739 818.497 97.0266 817.928 97.4247C816.495 98.5363 814.635 99.4924 812.406 99.4675Z" fill="#00004B"/>
<path fill-rule="evenodd" clip-rule="evenodd" d="M798.04 29.7816L825.886 27.642L850.66 25.7555C856.412 25.3183 861.535 29.4941 862.525 35.4375C863.486 41.213 859.827 46.6486 854.351 47.6719L854.295 47.6817L799.728 57.3611L798.04 29.7816Z" fill="#00B082"/>
<path d="M799.777 58.6222C799.487 58.6156 799.244 58.5431 799.036 58.3488C798.763 58.1084 798.592 57.7923 798.589 57.4466L796.9 29.8671C796.837 29.1855 797.364 28.5731 798 28.5765L850.666 24.4845C857.044 23.9948 862.704 28.5954 863.813 35.2105C864.882 41.6017 860.772 47.7518 854.68 48.8836L854.624 48.8935L800.057 58.5729C799.889 58.6025 799.833 58.6123 799.777 58.6222ZM799.284 30.9474L800.864 55.9487L854.2 46.4865C859.004 45.5817 862.248 40.7386 861.415 35.6909C860.534 30.3633 855.948 26.6123 850.765 27.0067L799.284 30.9474Z" fill="#00004B"/>
<path fill-rule="evenodd" clip-rule="evenodd" d="M826.1 27.5465C816.381 16.6202 801.759 10.9449 786.721 13.7119C763.073 18.0549 747.278 41.7335 751.473 66.5047L837.044 50.6658L826.1 27.5465Z" fill="#00B082"/>
<path d="M751.512 67.7098C750.933 67.6965 750.452 67.2619 750.353 66.7021C748.294 54.3675 750.897 41.9612 757.754 31.7483C764.6 21.4795 774.825 14.6552 786.57 12.5265C801.552 9.76936 816.628 15.0759 826.999 26.7531C827.433 27.2537 827.404 28.0669 826.959 28.4916C826.468 28.9822 825.711 28.9426 825.276 28.442C815.472 17.3576 801.147 12.3804 786.949 14.9994C775.829 17.0755 766.115 23.5211 759.627 33.2072C753.37 42.5641 750.859 53.8575 752.441 65.1219L836.847 49.5462C837.519 49.4278 838.121 49.8987 838.24 50.5704C838.358 51.2422 837.953 51.8907 837.281 52.0092L751.71 67.8481C751.634 67.746 751.578 67.7559 751.512 67.7098Z" fill="#00004B"/>
<path fill-rule="evenodd" clip-rule="evenodd" d="M800.539 25.3007L811.211 23.3035C817.638 22.1125 823.745 26.6341 824.874 33.3612C826.002 40.0882 821.708 46.5017 815.28 47.6928L804.609 49.6899C798.181 50.881 792.074 46.3593 790.946 39.6323C789.827 32.9612 794.112 26.4917 800.539 25.3007Z" fill="white"/>
<path d="M802.557 51.1483C799.903 51.1545 797.325 50.2816 795.143 48.7041C792.291 46.6096 790.412 43.478 789.78 39.8955C789.204 36.3031 789.956 32.7077 791.909 29.7083C793.917 26.6991 796.861 24.7371 800.276 24.135L810.948 22.1379C814.352 21.4798 817.79 22.3166 820.641 24.4112C823.492 26.5057 825.372 29.6373 826.003 33.2197C827.25 40.6185 822.495 47.6905 815.452 48.9901L804.78 50.9872C804.098 51.0497 803.361 51.122 802.557 51.1483ZM813.305 24.3772C812.669 24.3738 812.044 24.4264 811.428 24.535L800.756 26.5321C795.001 27.6048 791.111 33.3696 792.121 39.425C792.634 42.3357 794.182 44.8911 796.506 46.6167C798.83 48.3424 801.659 48.998 804.448 48.4486L815.119 46.4514C820.875 45.3788 824.765 39.6139 823.755 33.5586C823.241 30.6478 821.694 28.0925 819.37 26.3668C817.582 25.066 815.501 24.394 813.305 24.3772Z" fill="#00004B"/>
<path fill-rule="evenodd" clip-rule="evenodd" d="M688.685 156.244L665.665 324.547L812.028 346.488L855.397 187.336C859.83 171.022 850.85 154.027 835.276 149.366C834.309 149.082 833.343 148.855 832.32 148.628L724.949 128.677C708.011 125.551 691.811 137.373 688.799 155.164C688.799 155.505 688.742 155.846 688.685 156.244Z" fill="#F5E900"/>
<path fill-rule="evenodd" clip-rule="evenodd" d="M688.685 156.244L665.665 324.547L812.028 346.488L855.397 187.336C859.83 171.022 850.85 154.027 835.276 149.366C834.309 149.082 833.343 148.855 832.32 148.628L799.807 142.603C802.82 157.267 798.386 163.122 786.393 160.223C774.4 157.324 764.169 148.684 755.586 134.361L724.892 128.677C707.954 125.551 691.755 137.373 688.742 155.164C688.799 155.505 688.742 155.846 688.685 156.244Z" fill="#F96A00"/>
<path fill-rule="evenodd" clip-rule="evenodd" d="M758.314 203.535L788.041 193.702L803.047 196.316L788.041 266.116L797.42 268.162L793.441 284.816L755.415 277.654L759.167 259.863L769.796 262.364L779.402 215.983L761.042 222.292L758.314 203.535Z" fill="white"/>
<path d="M793.442 286.067C793.385 286.067 793.328 286.067 793.215 286.067L755.245 278.905C754.904 278.848 754.677 278.677 754.45 278.393C754.279 278.109 754.222 277.768 754.279 277.427L757.974 259.636C758.031 259.295 758.201 259.011 758.485 258.84C758.77 258.67 759.054 258.613 759.395 258.67L768.887 260.887L777.811 217.859L761.384 223.486C761.043 223.6 760.702 223.543 760.418 223.372C760.134 223.202 759.906 222.861 759.849 222.52L757.121 203.705C757.007 203.08 757.405 202.512 757.917 202.341L787.644 192.508C787.815 192.451 787.985 192.451 788.213 192.451L803.218 195.066C803.559 195.123 803.844 195.293 804.014 195.577C804.185 195.862 804.241 196.203 804.185 196.544L789.463 265.15L797.705 266.912C798.046 266.968 798.273 267.196 798.444 267.48C798.614 267.764 798.671 268.105 798.614 268.446L794.579 285.1C794.465 285.669 793.953 286.067 793.442 286.067ZM756.837 276.631L792.532 283.395L795.943 269.128L787.758 267.366C787.474 267.309 787.19 267.082 787.019 266.798C786.848 266.514 786.792 266.173 786.848 265.832L801.57 197.283L788.099 194.952L759.622 204.388L762.009 220.701L779.061 214.846C779.459 214.732 779.914 214.789 780.198 215.13C780.539 215.415 780.653 215.869 780.539 216.324L770.933 262.705C770.876 263.046 770.706 263.331 770.422 263.501C770.138 263.672 769.853 263.729 769.512 263.672L760.077 261.341L756.837 276.631Z" fill="#00004B"/>
<path d="M812.028 347.738C811.972 347.738 811.915 347.738 811.858 347.738L665.495 325.798C665.211 325.741 664.927 325.57 664.699 325.343C664.529 325.059 664.415 324.775 664.472 324.434L687.492 156.13C687.549 155.789 687.606 155.392 687.663 155.05C690.789 136.634 707.613 124.3 725.177 127.54L755.871 133.224C756.212 133.281 756.496 133.508 756.666 133.792C765.022 147.775 775.139 156.301 786.735 159.086C791.793 160.337 795.431 159.882 797.421 157.836C799.808 155.335 800.263 150.333 798.728 142.944C798.671 142.546 798.785 142.148 799.012 141.807C799.296 141.523 799.694 141.352 800.092 141.466L832.605 147.491C833.628 147.661 834.651 147.945 835.674 148.23C851.816 153.061 861.195 170.795 856.591 187.733L813.222 346.885C812.995 347.34 812.54 347.738 812.028 347.738ZM666.973 323.467L811.176 345.123L854.317 186.995C858.58 171.364 849.941 155.05 834.992 150.56C834.082 150.276 833.116 150.049 832.15 149.878L801.343 144.137C802.65 151.526 801.854 156.585 799.069 159.484C796.454 162.212 792.134 162.838 786.166 161.417C774.059 158.461 763.544 149.764 754.904 135.498L724.722 129.87C708.409 126.858 692.835 138.283 689.936 155.335C689.879 155.676 689.822 156.017 689.766 156.358L666.973 323.467Z" fill="#00004B"/>
<path fill-rule="evenodd" clip-rule="evenodd" d="M597.106 174.741L696.405 132.85C714.025 125.404 734.033 134.385 741.081 152.801C741.479 153.824 741.82 154.847 742.104 155.927C748.13 177.071 737.159 199.41 717.265 206.628L632.972 237.094L652.354 328.664L615.124 344.863L571.471 240.505C561.012 215.438 571.869 186.223 595.741 175.253C596.253 175.082 596.651 174.912 597.106 174.741Z" fill="#06B8FF"/>
<path d="M634.79 173.661C634.62 173.661 634.506 173.604 634.335 173.547L623.706 168.886C623.081 168.602 622.797 167.92 623.081 167.295C623.308 166.67 624.047 166.386 624.616 166.613L634.79 171.046L681.74 151.38V141.376C681.74 140.694 682.252 140.125 682.934 140.125C683.559 140.125 684.127 140.694 684.127 141.376V152.232C684.127 152.744 683.843 153.199 683.388 153.369L635.245 173.547C635.074 173.604 634.961 173.661 634.79 173.661Z" fill="#00004B"/>
<path d="M646.727 227.489C646.67 227.489 646.613 227.489 646.613 227.489C645.988 227.432 645.476 226.806 645.59 226.124L647.068 211.971C647.125 211.516 647.409 211.062 647.864 210.948L699.19 193.1C699.588 192.987 700.043 193.043 700.327 193.328L710.672 202.649C711.183 203.104 711.24 203.9 710.786 204.411C710.388 204.923 709.592 204.98 709.137 204.525L699.304 195.658L649.342 212.994L647.921 226.409C647.864 227.034 647.352 227.489 646.727 227.489Z" fill="#00004B"/>
<path d="M645.42 312.749C645.306 312.749 645.249 312.749 645.135 312.692L634.961 310.077C634.563 309.963 634.222 309.622 634.108 309.168L623.025 265.685C622.911 265.344 622.968 264.946 623.195 264.662L630.13 253.805C630.471 253.237 631.21 253.067 631.778 253.464C632.346 253.862 632.46 254.601 632.119 255.17L625.469 265.514L636.211 307.747L645.704 310.191C646.329 310.361 646.727 311.043 646.556 311.669C646.443 312.351 645.988 312.749 645.42 312.749Z" fill="#00004B"/>
<path d="M612.225 212.279C611.997 212.279 611.827 212.222 611.656 212.109L593.297 201.309C593.013 201.139 592.785 200.798 592.729 200.457L590.967 190.51C590.853 189.827 591.251 189.202 591.933 189.089C592.558 188.975 593.183 189.43 593.297 190.055L594.945 199.433L612.282 209.608L621.092 205.515C621.66 205.231 622.399 205.515 622.626 206.141C622.911 206.766 622.626 207.505 622.001 207.789L612.623 212.109C612.566 212.279 612.395 212.279 612.225 212.279Z" fill="#00004B"/>
<path d="M603.187 240.983C602.619 240.983 602.107 240.529 601.994 239.904L600.914 229.843L583.805 219.214L575.222 222.397C574.597 222.624 573.915 222.283 573.687 221.658C573.46 221.033 573.801 220.294 574.426 220.066L583.521 216.656C583.862 216.542 584.203 216.542 584.544 216.77L602.619 228.024C602.96 228.194 603.13 228.592 603.187 228.933L604.324 239.619C604.381 240.301 603.926 240.927 603.301 240.983C603.244 240.983 603.187 240.983 603.187 240.983Z" fill="#00004B"/>
<path d="M598.186 245.223C581.929 245.223 568.686 231.354 568.686 214.245C568.686 197.136 581.929 183.267 598.186 183.267C614.442 183.267 627.685 197.136 627.685 214.245C627.685 231.354 614.499 245.223 598.186 245.223ZM598.186 185.825C583.237 185.825 571.016 198.614 571.016 214.302C571.016 229.989 583.18 242.778 598.186 242.778C613.191 242.778 625.355 229.989 625.355 214.302C625.355 198.614 613.191 185.825 598.186 185.825Z" fill="#00004B"/>
<path d="M615.124 346.114C614.669 346.114 614.214 345.829 614.044 345.375L570.391 241.016C559.648 215.382 570.845 185.37 595.286 174.173C595.741 173.945 596.196 173.775 596.651 173.547L695.95 131.713C714.139 124.04 734.886 133.305 742.161 152.346C742.559 153.426 742.957 154.506 743.241 155.586C749.493 177.412 738.239 200.376 717.663 207.822L634.392 237.947L653.547 328.436C653.661 329.005 653.377 329.63 652.865 329.857L615.578 346C615.408 346.057 615.294 346.114 615.124 346.114ZM709.137 131.486C705.045 131.486 700.838 132.282 696.803 133.987L597.56 175.878C597.105 176.048 596.707 176.276 596.253 176.446C573.005 187.132 562.376 215.666 572.55 240.05L615.692 343.272L650.99 327.982L631.778 237.379C631.664 236.753 632.005 236.128 632.574 235.958L716.867 205.491C736.25 198.5 746.822 176.901 740.911 156.325C740.626 155.302 740.285 154.279 739.887 153.312C734.772 139.728 722.324 131.486 709.137 131.486Z" fill="#00004B"/>
<path fill-rule="evenodd" clip-rule="evenodd" d="M651.917 327.227C662.427 338.734 668.393 347.438 669.848 353.412C672.05 362.318 675.089 363.606 674.268 366.029C673.447 368.452 667.419 370.553 661.901 361.286C667.695 376.279 669.256 384.287 666.653 385.456C663.996 386.607 661.51 386.125 659.174 384.065C658.813 390.043 656.346 392.17 651.738 390.371C648.6 393.342 645.137 393.715 641.277 391.524C638.145 392.985 635.557 391.619 633.552 387.321C630.636 380.876 615.457 357.266 614.36 340.172L651.917 327.227Z" fill="#06B8FF"/>
<path d="M659.092 385.124C658.606 385.129 658.164 384.847 657.98 384.356L648.896 360.121C648.644 359.485 648.969 358.757 649.552 358.485C650.188 358.233 650.863 358.539 651.116 359.175L660.199 383.41C660.452 384.046 660.126 384.775 659.543 385.046C659.417 385.061 659.218 385.109 659.092 385.124Z" fill="#00004B"/>
<path d="M650.796 390.633C650.31 390.638 649.868 390.356 649.684 389.866L640.6 365.631C640.348 364.995 640.673 364.266 641.256 363.994C641.839 363.723 642.567 364.048 642.82 364.684L651.903 388.919C652.156 389.556 651.83 390.284 651.247 390.556C651.048 390.604 650.922 390.619 650.796 390.633Z" fill="#00004B"/>
<path d="M641.505 392.393C641.019 392.398 640.578 392.116 640.393 391.626L631.329 367.337C631.077 366.701 631.402 365.973 631.985 365.701C632.621 365.449 633.296 365.755 633.549 366.391L642.613 390.679C642.865 391.316 642.54 392.044 641.957 392.316C641.758 392.364 641.631 392.379 641.505 392.393Z" fill="#00004B"/>
<path d="M646.006 394.153C644.443 394.128 642.835 393.724 641.204 392.889C638.606 393.878 635.177 393.659 632.513 387.85C631.901 386.539 630.771 384.494 629.315 381.847C623.612 371.424 614.036 354.026 613.117 340.264C613.064 339.579 613.583 338.982 614.195 338.963C614.88 338.909 615.424 339.41 615.477 340.094C616.357 353.299 626.156 371.08 631.398 380.609C632.854 383.256 634.019 385.374 634.665 386.758C636.819 391.474 639.112 391.159 640.787 390.378C641.151 390.208 641.511 390.218 641.865 390.407C645.264 392.37 648.241 392.002 650.937 389.414C651.287 389.118 651.738 389.041 652.112 389.177C653.855 389.872 655.186 389.872 656.065 389.285C657.129 388.523 657.79 386.707 657.956 383.924C658.004 383.458 658.267 383.07 658.65 382.846C659.068 382.696 659.534 382.745 659.85 383.041C661.816 384.785 663.855 385.164 666.075 384.218C666.366 384.082 668.732 382.403 660.633 361.611C660.415 361.047 660.614 360.334 661.197 360.062C661.726 359.771 662.387 359.951 662.731 360.499C666.342 366.532 669.679 366.839 670.941 366.693C672.204 366.548 672.869 365.883 673.025 365.456C673.239 364.868 673.035 364.431 672.161 362.843C671.239 361.056 669.783 358.408 668.585 353.557C667.159 347.836 661.261 339.278 650.926 327.955C650.489 327.493 650.494 326.648 650.955 326.211C651.436 325.721 652.155 325.741 652.626 326.275C663.345 338.04 669.311 346.744 670.848 352.989C671.93 357.496 673.318 359.997 674.225 361.659C675.133 363.32 675.798 364.65 675.249 366.326C674.704 367.821 673.145 368.947 671.178 369.199C670.095 369.35 667.833 369.252 665.245 367.221C670.602 382.418 669.202 385.598 666.982 386.544C664.544 387.593 662.228 387.475 660.033 386.193C659.605 388.698 658.697 390.364 657.322 391.315C655.948 392.266 654.092 392.378 651.917 391.707C650.164 393.367 648.109 394.192 646.006 394.153Z" fill="#00004B"/>
<path fill-rule="evenodd" clip-rule="evenodd" d="M788.688 273.823C929.423 240.514 1012.75 229.374 1038.73 240.458C1077.66 257.055 1056.69 329.412 1087.38 331.629C1107.84 333.107 1204.93 303.607 1378.57 243.072L1409.66 331.629C1215.9 394.949 1095.51 424.278 1048.45 419.56C977.908 412.512 1004.11 318.726 975.236 318.726C956.024 318.726 898.048 331.572 801.363 357.264L829.499 302.641L788.688 273.823Z" fill="#00B082"/>
<path d="M1059.13 421.266C1055.15 421.266 1051.57 421.095 1048.33 420.754C1028.95 418.822 1014.97 410.296 1005.7 394.778C997.745 381.478 994.619 365.506 991.834 351.352C988.366 333.789 985.638 319.92 975.293 319.92C956.252 319.92 897.82 332.879 801.704 358.457C801.249 358.571 800.794 358.401 800.51 358.003C800.226 357.605 800.169 357.093 800.397 356.639L828.021 302.982L788.062 274.789C787.664 274.505 787.494 273.993 787.551 273.539C787.664 273.027 788.005 272.686 788.46 272.572C858.544 255.975 915.1 244.777 956.65 239.207C998.313 233.637 1026.11 233.637 1039.24 239.264C1060.16 248.188 1064.25 272.459 1067.83 293.887C1071.01 312.929 1073.8 329.355 1087.5 330.379C1107.73 331.856 1205.55 302.072 1378.23 241.879C1378.86 241.651 1379.48 241.992 1379.71 242.618L1410.8 331.174C1410.91 331.515 1410.91 331.856 1410.74 332.141C1410.57 332.425 1410.35 332.652 1410.06 332.766C1313.6 364.312 1234.31 387.73 1174.35 402.281C1122.51 414.9 1083.91 421.266 1059.13 421.266ZM975.293 317.476C987.571 317.476 990.64 332.936 994.164 350.898C999.734 379.034 1006.61 414.104 1048.62 418.31C1095.17 422.971 1216.12 393.528 1408.13 330.776L1377.83 244.55C1207.37 303.948 1112.73 332.879 1088.92 332.879C1088.29 332.879 1087.78 332.879 1087.27 332.823C1071.69 331.686 1068.62 313.554 1065.38 294.342C1061.92 273.595 1057.94 250.007 1038.22 241.594C1012.75 230.738 929.764 241.765 791.586 274.391L830.181 301.617C830.692 301.959 830.863 302.697 830.579 303.209L803.693 355.388C898.502 330.265 956.195 317.476 975.293 317.476Z" fill="#00004B"/>
<path fill-rule="evenodd" clip-rule="evenodd" d="M1114.49 690.177H1195.26C1212.37 690.177 1226.18 704.671 1226.18 722.632C1226.18 740.537 1212.31 755.088 1195.26 755.088H1114.49C1097.38 755.031 1083.57 740.537 1083.57 722.632C1083.57 704.671 1097.38 690.177 1114.49 690.177Z" fill="#06B8FF"/>
<path d="M1195.26 756.282H1114.49C1096.76 756.282 1082.38 741.162 1082.38 722.632C1082.38 704.102 1096.81 688.983 1114.49 688.983H1195.26C1212.99 688.983 1227.37 704.102 1227.37 722.632C1227.37 741.162 1212.99 756.282 1195.26 756.282ZM1114.49 691.427C1098.06 691.427 1084.71 705.41 1084.71 722.632C1084.71 739.855 1098.06 753.837 1114.49 753.837H1195.26C1211.69 753.837 1225.04 739.855 1225.04 722.632C1225.04 705.41 1211.69 691.427 1195.26 691.427H1114.49Z" fill="#00004B"/>
<path d="M1190.88 733.034H1118.87C1113.41 733.034 1108.92 728.373 1108.92 722.632C1108.92 716.891 1113.35 712.231 1118.87 712.231H1190.83C1196.28 712.231 1200.77 716.891 1200.77 722.632C1200.77 728.373 1196.34 733.034 1190.88 733.034ZM1118.87 714.675C1114.72 714.675 1111.31 718.256 1111.31 722.575C1111.31 726.895 1114.72 730.476 1118.87 730.476H1190.83C1194.97 730.476 1198.39 726.895 1198.39 722.575C1198.39 718.256 1194.97 714.675 1190.83 714.675H1118.87Z" fill="#00004B"/>
<path d="M1163.18 588.378L1179.81 574.421L1140.02 527.006L1123.39 540.963L1163.18 588.378Z" fill="#F5E900"/>
<path d="M1162.46 589.911H1140.75C1140.13 589.911 1139.56 589.342 1139.56 588.66V526.762C1139.56 526.08 1140.07 525.511 1140.75 525.511H1162.46C1163.09 525.511 1163.66 526.08 1163.66 526.762V588.66C1163.6 589.342 1163.09 589.911 1162.46 589.911ZM1141.89 587.41H1161.27V528.012H1141.89V587.41Z" fill="#00004B"/>
<path fill-rule="evenodd" clip-rule="evenodd" d="M1140.98 487.656V499.99C1140.98 504.253 1144.27 507.663 1148.31 507.663H1152.52C1156.55 507.663 1159.85 504.196 1159.85 499.99V487.656H1181.85V499.99C1181.85 516.985 1168.72 530.74 1152.52 530.74H1148.31C1132.11 530.74 1118.98 516.985 1118.98 499.99V487.656H1140.98Z" fill="#F5E900"/>
<path d="M1152.52 531.934H1148.31C1131.49 531.934 1117.84 517.554 1117.84 499.933V487.656C1117.84 486.974 1118.36 486.405 1119.04 486.405H1140.98C1141.6 486.405 1142.17 486.974 1142.17 487.656V499.99C1142.17 503.571 1144.9 506.47 1148.31 506.47H1152.52C1155.93 506.47 1158.65 503.571 1158.65 499.99V487.656C1158.65 486.974 1159.17 486.405 1159.85 486.405H1181.85C1182.47 486.405 1183.04 486.974 1183.04 487.656V499.99C1182.98 517.61 1169.34 531.934 1152.52 531.934ZM1120.17 488.849V499.933C1120.17 516.246 1132.79 529.49 1148.31 529.49H1152.52C1168.03 529.49 1180.65 516.246 1180.65 499.933V488.849H1160.99V499.933C1160.99 504.878 1157.18 508.857 1152.46 508.857H1148.25C1143.54 508.857 1139.73 504.878 1139.73 499.933V488.849H1120.17Z" fill="#00004B"/>
<path fill-rule="evenodd" clip-rule="evenodd" d="M1141.2 569.355H1222.43C1243.8 569.355 1261.13 587.544 1261.13 609.939V649.557C1261.13 672.009 1243.8 690.14 1222.43 690.14H1141.2C1119.83 690.14 1102.49 671.952 1102.49 649.557V609.939C1102.44 587.544 1119.77 569.355 1141.2 569.355Z" fill="#F96A00"/>
<path fill-rule="evenodd" clip-rule="evenodd" d="M1217.71 569.355H1222.43C1243.8 569.355 1261.13 587.544 1261.13 609.939V649.557C1261.13 672.009 1243.8 690.14 1222.43 690.14H1217.71C1196.34 690.14 1179 671.952 1179 649.557V609.939C1179 587.544 1196.34 569.355 1217.71 569.355Z" fill="#F96A00"/>
<path d="M1222.43 691.391H1141.2C1119.2 691.391 1101.3 672.634 1101.3 649.557V609.939C1101.3 586.862 1119.2 568.105 1141.2 568.105H1222.43C1244.42 568.105 1262.33 586.862 1262.33 609.939V649.557C1262.33 672.634 1244.42 691.391 1222.43 691.391ZM1141.2 570.606C1120.51 570.606 1103.63 588.283 1103.63 609.996V649.614C1103.63 671.326 1120.45 689.004 1141.2 689.004H1222.43C1243.12 689.004 1260 671.326 1260 649.614V609.996C1260 588.283 1243.17 570.606 1222.43 570.606H1141.2Z" fill="#00004B"/>
<path d="M1222.43 691.391H1217.71C1195.71 691.391 1177.81 672.634 1177.81 649.557V609.939C1177.81 586.862 1195.71 568.105 1217.71 568.105H1222.43C1244.42 568.105 1262.33 586.862 1262.33 609.939V649.557C1262.33 672.634 1244.42 691.391 1222.43 691.391ZM1217.71 570.606C1197.02 570.606 1180.14 588.283 1180.14 609.996V649.614C1180.14 671.326 1196.96 689.004 1217.71 689.004H1222.43C1243.12 689.004 1260 671.326 1260 649.614V609.996C1260 588.283 1243.17 570.606 1222.43 570.606H1217.71Z" fill="#00004B"/>
<path d="M1118.2 606.74C1116.1 608.495 1116.55 612.472 1119.19 615.622C1121.84 618.772 1125.68 619.903 1127.77 618.147C1129.86 616.392 1129.41 612.415 1126.77 609.265C1124.13 606.115 1120.29 604.984 1118.2 606.74Z" fill="#00004B"/>
<path d="M1144.67 606.726C1142.57 608.481 1143.02 612.458 1145.67 615.608C1148.31 618.758 1152.15 619.889 1154.24 618.133C1156.33 616.378 1155.88 612.401 1153.24 609.251C1150.6 606.101 1146.76 604.97 1144.67 606.726Z" fill="#00004B"/>
<path d="M1144.5 637.336H1127.96C1127.33 637.336 1126.76 636.768 1126.76 636.086C1126.76 635.404 1127.28 634.835 1127.96 634.835H1144.5C1145.12 634.835 1145.69 635.404 1145.69 636.086C1145.69 636.768 1145.12 637.336 1144.5 637.336Z" fill="#00004B"/>
<path fill-rule="evenodd" clip-rule="evenodd" d="M1146.94 445.671L1175.36 434.843L1214.29 546.971L1185.87 557.798L1146.94 445.671Z" fill="#F5E900"/>
<path fill-rule="evenodd" clip-rule="evenodd" d="M1146.94 445.671L1175.36 434.843L1194.95 491.164L1166.55 502.046L1146.94 445.671Z" fill="#00004B"/>
<path d="M1185.91 559.056C1185.42 559.051 1184.94 558.741 1184.82 558.241L1145.89 446.113C1145.77 445.793 1145.78 445.487 1145.92 445.196C1146.05 444.904 1146.28 444.7 1146.58 444.53L1175 433.702C1175.64 433.469 1176.3 433.775 1176.53 434.416L1215.47 546.543C1215.58 546.863 1215.57 547.169 1215.44 547.461C1215.3 547.752 1215.07 547.956 1214.77 548.126L1186.35 558.954C1186.19 559.012 1186.01 559.017 1185.91 559.056ZM1148.47 446.385L1186.62 556.196L1212.8 546.184L1174.64 436.373L1148.47 446.385Z" fill="#00004B"/>
<path d="M1224.32 342.382C1229.21 339.209 1235.64 341.587 1237.53 347.253C1250.61 386.041 1242.85 415.238 1213.88 431.35C1208.85 434.148 1202.64 431.387 1201.04 425.677L1186.84 374.837C1185.72 370.768 1187.27 366.392 1190.75 364.157L1224.32 342.382ZM1223.8 364.89L1206.03 376.38L1214.82 407.841L1214.96 407.729C1225.17 397.902 1228.17 384.046 1223.8 364.89Z" fill="#00004B"/>
<path d="M1053.51 413.866C1048.02 415.742 1045.67 422.406 1048.6 427.63C1068.54 463.137 1094.86 475.634 1125.24 462.703C1130.54 460.472 1132.49 453.712 1129.35 448.745L1101.34 404.684C1099.09 401.149 1094.84 399.611 1091.03 400.938L1053.51 413.866ZM1070.31 427.954L1090.14 421.101L1107.44 448.373L1107.26 448.378C1093.56 450.281 1081.52 443.777 1070.31 427.954Z" fill="#00004B"/>
<path fill-rule="evenodd" clip-rule="evenodd" d="M1088 408.752L1201.72 365.368L1214.46 402.043C1225.9 434.959 1209.7 471.4 1178.31 483.37C1146.92 495.34 1112.18 478.344 1100.75 445.427L1088 408.752Z" fill="#F5E900"/>
<path d="M1157.54 488.451C1148.66 488.477 1139.81 486.436 1131.5 482.383C1116.55 475.06 1105.25 462.116 1099.59 445.908L1086.85 409.233C1086.73 408.913 1086.74 408.607 1086.88 408.315C1087.01 408.024 1087.24 407.82 1087.54 407.65L1201.26 364.265C1201.58 364.149 1201.88 364.158 1202.17 364.294C1202.46 364.43 1202.67 364.658 1202.79 364.979L1215.53 401.654C1227.18 435.158 1210.59 472.346 1178.69 484.564C1171.81 487.126 1164.68 488.453 1157.54 488.451ZM1089.5 409.538L1101.81 445.038C1113 477.261 1147.13 493.931 1177.88 482.195C1192.76 476.538 1204.67 465.064 1211.37 450.047C1218.04 434.976 1218.78 418.071 1213.36 402.504L1201.04 367.004L1089.5 409.538Z" fill="#00004B"/>
<path fill-rule="evenodd" clip-rule="evenodd" d="M1139.87 435.422L1154.78 418.382L1164.83 414.421L1177.39 456.423L1183.82 454.144L1186.98 465.817L1161.3 475.527L1157.62 463.257L1164.96 460.826L1157.04 435.222L1147.9 445.865L1139.87 435.422Z" fill="#FDEDE0"/>
<path d="M1161.32 476.732C1161.14 476.736 1160.94 476.688 1160.79 476.62C1160.5 476.484 1160.28 476.203 1160.16 475.882L1156.43 463.631C1156.31 463.311 1156.37 462.985 1156.51 462.694C1156.65 462.402 1156.93 462.179 1157.19 462.082L1163.4 460.006L1156.45 437.612L1148.68 446.671C1148.47 446.928 1148.12 447.118 1147.74 447.074C1147.38 447.084 1147.07 446.895 1146.85 446.613L1138.84 436.097C1138.49 435.621 1138.49 434.956 1138.93 434.494L1153.78 417.474C1153.9 417.309 1154.04 417.197 1154.2 417.139L1164.26 413.178C1164.58 413.061 1164.88 413.071 1165.17 413.207C1165.46 413.343 1165.69 413.624 1165.8 413.945L1178 454.752L1183.3 452.881C1183.62 452.765 1183.95 452.828 1184.24 452.964C1184.53 453.099 1184.76 453.381 1184.82 453.721L1187.98 465.394C1188.14 466.001 1187.83 466.657 1187.25 466.871L1161.73 476.702C1161.62 476.741 1161.44 476.746 1161.32 476.732ZM1159.06 464.062L1162.05 473.924L1185.56 465.065L1183.02 455.766L1177.75 457.564C1177.43 457.681 1177.12 457.671 1176.81 457.482C1176.52 457.346 1176.3 457.064 1176.23 456.725L1164.06 415.97L1155.43 419.353L1141.43 435.397L1147.92 443.922L1156.11 434.348C1156.41 433.999 1156.84 433.843 1157.23 433.94C1157.63 434.037 1157.98 434.333 1158.14 434.761L1166.12 460.345C1166.24 460.666 1166.17 460.991 1166.04 461.283C1165.9 461.574 1165.62 461.798 1165.35 461.895L1159.06 464.062Z" fill="#00004B"/>
<path d="M1128.31 379.923C1112.06 409.355 1106.71 437.531 1116.35 442.857C1126 448.183 1146.99 428.641 1163.24 399.209C1179.49 369.778 1184.85 341.601 1175.2 336.275C1165.56 330.95 1144.56 350.491 1128.31 379.923Z" fill="#F96A00"/>
<path d="M1107.12 419.576C1096.35 419.564 1089.55 416.837 1087.81 411.724C1085.9 406.131 1090.32 398.656 1100.22 390.635C1109.81 382.911 1123.54 375.433 1138.83 369.567C1154.13 363.755 1169.23 360.196 1181.31 359.668C1193.87 359.091 1201.84 361.876 1203.75 367.47C1205.67 373.064 1201.25 380.538 1191.35 388.559C1181.76 396.283 1168.03 403.761 1152.74 409.627C1137.44 415.439 1122.34 418.998 1110.25 419.526C1109.17 419.556 1108.15 419.566 1107.12 419.576ZM1139.61 371.884C1124.52 377.618 1111.05 384.999 1101.64 392.538C1092.7 399.723 1088.48 406.402 1090.02 410.801C1091.56 415.2 1098.92 417.48 1110.16 416.957C1122.02 416.454 1136.85 412.992 1151.92 407.204C1167.01 401.469 1180.47 394.088 1189.89 386.549C1198.83 379.364 1203.05 372.686 1201.51 368.286C1198.6 359.789 1172.98 359.194 1139.61 371.884Z" fill="#00004B"/>
<path fill-rule="evenodd" clip-rule="evenodd" d="M1177.52 532.048L1205.03 521.551C1221.44 515.277 1239.61 524.148 1245.58 541.391L1158.63 574.55C1152.6 557.327 1161.09 538.269 1177.52 532.048Z" fill="#F5E900"/>
<path d="M1158.62 575.772C1158.14 575.767 1157.66 575.457 1157.54 574.957C1154.52 566.318 1154.93 556.975 1158.62 548.675C1162.31 540.374 1168.9 534.045 1177.12 530.871L1204.64 520.374C1221.63 513.886 1240.53 523.097 1246.72 540.927C1246.83 541.248 1246.82 541.554 1246.69 541.845C1246.55 542.137 1246.32 542.341 1246.02 542.511L1159.02 575.689C1158.86 575.748 1158.75 575.787 1158.62 575.772ZM1177.91 533.188C1162.49 539.039 1154.35 556.703 1159.3 572.985L1244.01 540.642C1237.84 524.861 1220.83 516.839 1205.36 522.71L1177.91 533.188Z" fill="#00004B"/>
<path d="M1232.6 588.391L1249.23 574.433L1209.44 527.019L1192.81 540.976L1232.6 588.391Z" fill="#F5E900"/>
<path d="M1231.86 589.911H1210.15C1209.53 589.911 1208.96 589.342 1208.96 588.66V526.762C1208.96 526.08 1209.47 525.511 1210.15 525.511H1231.86C1232.49 525.511 1233.06 526.08 1233.06 526.762V588.66C1233.06 589.342 1232.55 589.911 1231.86 589.911ZM1211.35 587.41H1230.73V528.012H1211.35V587.41Z" fill="#00004B"/>
<path fill-rule="evenodd" clip-rule="evenodd" d="M1210.38 487.656V499.99C1210.38 504.253 1213.68 507.663 1217.71 507.663H1221.92C1225.95 507.663 1229.25 504.196 1229.25 499.99V487.656H1251.25V499.99C1251.25 516.985 1238.12 530.74 1221.92 530.74H1217.71C1201.51 530.74 1188.38 516.985 1188.38 499.99V487.656H1210.38Z" fill="#F5E900"/>
<path d="M1221.92 531.934H1217.71C1200.89 531.934 1187.25 517.554 1187.25 499.933V487.656C1187.25 486.974 1187.76 486.405 1188.44 486.405H1210.44C1211.06 486.405 1211.63 486.974 1211.63 487.656V499.99C1211.63 503.571 1214.36 506.47 1217.77 506.47H1221.97C1225.38 506.47 1228.11 503.571 1228.11 499.99V487.656C1228.11 486.974 1228.62 486.405 1229.31 486.405H1251.25C1251.87 486.405 1252.44 486.974 1252.44 487.656V499.99C1252.44 517.61 1238.74 531.934 1221.92 531.934ZM1189.58 488.849V499.933C1189.58 516.246 1202.19 529.49 1217.71 529.49H1221.92C1237.43 529.49 1250.05 516.246 1250.05 499.933V488.849H1230.44V499.933C1230.44 504.878 1226.64 508.857 1221.92 508.857H1217.71C1212.99 508.857 1209.19 504.878 1209.19 499.933V488.849H1189.58Z" fill="#00004B"/>
<path fill-rule="evenodd" clip-rule="evenodd" d="M1175.88 690.177H1256.65C1273.76 690.177 1287.57 704.671 1287.57 722.632C1287.57 740.537 1273.7 755.088 1256.65 755.088H1175.88C1158.77 755.088 1144.96 740.594 1144.96 722.632C1144.96 704.671 1158.83 690.177 1175.88 690.177Z" fill="#06B8FF"/>
<path d="M1256.7 756.282H1175.88C1158.14 756.282 1143.76 741.162 1143.76 722.632C1143.76 704.102 1158.2 688.983 1175.88 688.983H1256.65C1274.38 688.983 1288.76 704.102 1288.76 722.632C1288.76 741.162 1274.38 756.282 1256.7 756.282ZM1175.88 691.427C1159.45 691.427 1146.09 705.41 1146.09 722.632C1146.09 739.855 1159.45 753.837 1175.88 753.837H1256.65C1273.07 753.837 1286.43 739.855 1286.43 722.632C1286.43 705.41 1273.07 691.427 1256.65 691.427H1175.88Z" fill="#00004B"/>
<path d="M1252.27 733.034H1180.31C1174.85 733.034 1170.36 728.373 1170.36 722.632C1170.36 716.891 1174.8 712.231 1180.31 712.231H1252.27C1257.73 712.231 1262.22 716.891 1262.22 722.632C1262.22 728.373 1257.73 733.034 1252.27 733.034ZM1180.31 714.675C1176.16 714.675 1172.75 718.256 1172.75 722.575C1172.75 726.895 1176.16 730.476 1180.31 730.476H1252.27C1256.42 730.476 1259.83 726.895 1259.83 722.575C1259.83 718.256 1256.42 714.675 1252.27 714.675H1180.31Z" fill="#00004B"/>
<path fill-rule="evenodd" clip-rule="evenodd" d="M660.338 42.3144L654.654 39.9839C653.176 39.4155 652.494 37.6535 653.062 36.1188C653.346 35.3231 653.915 34.6978 654.654 34.4136L660.338 32.0832C668.295 28.8433 674.605 22.2498 677.674 13.8944L679.891 7.92617C680.459 6.39149 682.108 5.65257 683.585 6.22097C684.324 6.50517 684.893 7.13041 685.177 7.92617L687.394 13.8944C690.463 22.2498 696.772 28.8433 704.73 32.0832L710.414 34.4136C711.892 34.982 712.574 36.744 712.005 38.2787C711.721 39.0745 711.153 39.6997 710.414 39.9839L704.73 42.3144C696.772 45.5542 690.463 52.1477 687.394 60.5032L685.177 66.4714C684.608 68.006 682.96 68.745 681.482 68.1766C680.743 67.8924 680.175 67.2671 679.891 66.4714L677.674 60.5032C674.605 52.2045 668.295 45.5542 660.338 42.3144Z" fill="white"/>
<path d="M682.505 69.6544C682.051 69.6544 681.539 69.5407 681.084 69.3702C680.061 68.9155 679.209 68.0629 678.811 66.9829L676.594 61.0147C673.638 53.0003 667.556 46.6342 659.883 43.508L654.199 41.1776C652.153 40.325 651.13 37.8808 651.925 35.7209C652.323 34.641 653.176 33.7315 654.199 33.3336L659.883 31.0032C667.5 27.877 673.581 21.5109 676.594 13.4965L678.811 7.52828C679.606 5.36836 681.937 4.2884 683.983 5.141C685.006 5.59572 685.859 6.44832 686.257 7.52828L688.473 13.4965C691.429 21.5109 697.511 27.877 705.184 31.0032L710.868 33.3336C712.915 34.1862 713.938 36.6304 713.142 38.7903C712.744 39.8702 711.892 40.7797 710.868 41.1776L705.184 43.508C697.568 46.6342 691.486 53.0003 688.473 61.0147L686.257 66.9829C685.631 68.6313 684.097 69.6544 682.505 69.6544ZM682.505 7.35776C681.823 7.35776 681.198 7.75564 680.971 8.43772L678.754 14.4059C675.571 23.0456 668.977 29.9801 660.736 33.3336L655.052 35.6641C654.597 35.8346 654.256 36.1756 654.085 36.6304C653.744 37.5398 654.199 38.5061 655.052 38.8471L660.736 41.1776C668.977 44.5311 675.571 51.4088 678.754 60.1053L680.971 66.0735C681.141 66.5282 681.482 66.8692 681.937 67.0398C682.789 67.3808 683.756 66.9261 684.097 66.0735L686.314 60.1053C689.497 51.4656 696.09 44.5311 704.332 41.1776L710.016 38.8471C710.471 38.6766 710.812 38.3356 710.982 37.8808C711.323 36.9714 710.868 36.0051 710.016 35.6641L704.332 33.3336C696.09 29.9801 689.497 23.1024 686.314 14.4059L684.097 8.43772C683.926 7.983 683.585 7.64196 683.131 7.47144C682.903 7.4146 682.733 7.35776 682.505 7.35776Z" fill="#00004B"/>
<path fill-rule="evenodd" clip-rule="evenodd" d="M242.683 603.869L236.999 601.538C235.521 600.97 234.839 599.208 235.407 597.673C235.691 596.877 236.26 596.252 236.999 595.968L242.683 593.637C250.64 590.398 256.949 583.804 260.019 575.449L262.235 569.48C262.804 567.946 264.452 567.207 265.93 567.775C266.669 568.059 267.237 568.685 267.522 569.48L269.738 575.449C272.808 583.804 279.117 590.398 287.075 593.637L292.759 595.968C294.236 596.536 294.918 598.298 294.35 599.833C294.066 600.629 293.497 601.254 292.759 601.538L287.075 603.869C279.117 607.108 272.808 613.702 269.738 622.057L267.522 628.026C266.953 629.56 265.305 630.299 263.827 629.731C263.088 629.447 262.52 628.821 262.235 628.026L260.019 622.057C256.949 613.759 250.64 607.108 242.683 603.869Z" fill="white"/>
<path d="M264.85 631.209C264.395 631.209 263.884 631.095 263.429 630.924C262.406 630.47 261.553 629.617 261.155 628.537L258.939 622.569C255.983 614.554 249.901 608.188 242.228 605.062L236.544 602.732C234.497 601.879 233.474 599.435 234.27 597.275C234.668 596.195 235.521 595.286 236.544 594.888L242.228 592.557C249.844 589.431 255.926 583.065 258.939 575.051L261.155 569.082C261.951 566.923 264.282 565.843 266.328 566.695C267.351 567.15 268.204 568.003 268.601 569.082L270.818 575.051C273.774 583.065 279.856 589.431 287.529 592.557L293.213 594.888C295.259 595.74 296.283 598.185 295.487 600.344C295.089 601.424 294.236 602.334 293.213 602.732L287.529 605.062C279.913 608.188 273.831 614.554 270.818 622.569L268.601 628.537C267.976 630.185 266.442 631.209 264.85 631.209ZM264.85 568.912C264.168 568.912 263.543 569.31 263.315 569.992L261.099 575.96C257.916 584.6 251.322 591.534 243.08 594.888L237.396 597.218C236.942 597.389 236.601 597.73 236.43 598.185C236.089 599.094 236.544 600.06 237.396 600.401L243.08 602.732C251.322 606.085 257.916 612.963 261.099 621.659L263.315 627.628C263.486 628.082 263.827 628.423 264.282 628.594C265.134 628.935 266.1 628.48 266.442 627.628L268.658 621.659C271.841 613.02 278.435 606.085 286.677 602.732L292.361 600.401C292.815 600.231 293.156 599.89 293.327 599.435C293.668 598.526 293.213 597.559 292.361 597.218L286.677 594.888C278.435 591.534 271.841 584.657 268.658 575.96L266.442 569.992C266.271 569.537 265.93 569.196 265.475 569.026C265.248 568.969 265.077 568.912 264.85 568.912Z" fill="#00004B"/>
<path fill-rule="evenodd" clip-rule="evenodd" d="M901.169 381.877L898.384 380.74C896.906 380.171 896.224 378.409 896.793 376.875C897.077 376.079 897.645 375.454 898.384 375.169L901.169 374.033C907.308 371.532 912.14 366.473 914.527 360.05L915.607 357.094C916.175 355.56 917.824 354.821 919.301 355.389C920.04 355.673 920.609 356.299 920.893 357.094L921.973 360.05C924.36 366.473 929.192 371.532 935.33 374.033L938.115 375.169C939.593 375.738 940.275 377.5 939.707 379.035C939.423 379.83 938.854 380.456 938.115 380.74L935.33 381.877C929.192 384.377 924.36 389.436 921.973 395.859L920.893 398.815C920.324 400.35 918.676 401.088 917.198 400.52C916.459 400.236 915.891 399.611 915.607 398.815L914.527 395.859C912.14 389.436 907.308 384.321 901.169 381.877Z" fill="white"/>
<path d="M918.221 401.941C917.71 401.941 917.255 401.827 916.744 401.657C915.72 401.259 914.868 400.349 914.47 399.27L913.39 396.314C911.116 390.232 906.512 385.401 900.715 383.013L897.93 381.876C896.906 381.479 896.167 380.683 895.713 379.66C895.258 378.637 895.258 377.5 895.656 376.42C896.054 375.34 896.906 374.43 897.93 374.033L900.715 372.896C906.512 370.565 911.116 365.677 913.39 359.595L914.47 356.64C914.868 355.616 915.607 354.764 916.573 354.309C917.539 353.854 918.619 353.854 919.642 354.252C920.666 354.65 921.518 355.56 921.916 356.64L922.996 359.595C925.27 365.677 929.874 370.508 935.671 372.896L938.456 374.033C939.48 374.43 940.218 375.226 940.673 376.249C941.128 377.272 941.128 378.409 940.73 379.489C940.332 380.569 939.48 381.479 938.456 381.876L935.671 383.013C929.874 385.344 925.27 390.232 922.996 396.314L921.916 399.27C921.518 400.293 920.779 401.145 919.813 401.6C919.358 401.77 918.79 401.941 918.221 401.941ZM918.221 356.469C917.994 356.469 917.767 356.526 917.539 356.64C917.141 356.81 916.8 357.151 916.687 357.606L915.607 360.561C913.106 367.269 907.99 372.668 901.567 375.283L898.782 376.42C898.327 376.59 897.986 376.931 897.816 377.386C897.645 377.841 897.645 378.296 897.873 378.693C898.043 379.091 898.384 379.432 898.782 379.603L901.567 380.74C907.99 383.354 913.106 388.697 915.607 395.461L916.687 398.417C916.857 398.872 917.198 399.213 917.653 399.383C918.051 399.554 918.506 399.554 918.903 399.326C919.301 399.156 919.642 398.815 919.756 398.36L920.836 395.404C923.337 388.697 928.453 383.297 934.876 380.683L937.661 379.546C938.115 379.376 938.456 379.034 938.627 378.58C938.797 378.125 938.797 377.67 938.57 377.272C938.4 376.875 938.059 376.534 937.661 376.363L934.876 375.226C928.453 372.612 923.337 367.269 920.836 360.505L919.756 357.549C919.586 357.094 919.245 356.753 918.79 356.583C918.619 356.526 918.449 356.469 918.221 356.469Z" fill="#00004B"/>
<path d="M507.212 281.497C512.015 281.497 515.908 277.425 515.908 272.403C515.908 267.38 512.015 263.308 507.212 263.308C502.409 263.308 498.515 267.38 498.515 272.403C498.515 277.425 502.409 281.497 507.212 281.497Z" fill="white"/>
<path d="M507.211 282.748C501.755 282.748 497.321 278.087 497.321 272.403C497.321 266.719 501.755 262.058 507.211 262.058C512.668 262.058 517.102 266.719 517.102 272.403C517.102 278.143 512.668 282.748 507.211 282.748ZM507.211 264.559C503.062 264.559 499.709 268.083 499.709 272.403C499.709 276.722 503.062 280.247 507.211 280.247C511.361 280.247 514.714 276.722 514.714 272.403C514.714 268.083 511.361 264.559 507.211 264.559Z" fill="#00004B"/>
<path d="M1393.89 496.842C1398.69 496.842 1402.59 492.771 1402.59 487.748C1402.59 482.725 1398.69 478.654 1393.89 478.654C1389.09 478.654 1385.19 482.725 1385.19 487.748C1385.19 492.771 1389.09 496.842 1393.89 496.842Z" fill="white"/>
<path d="M1393.89 498.093C1388.43 498.093 1384 493.432 1384 487.748C1384 482.064 1388.43 477.403 1393.89 477.403C1399.35 477.403 1403.78 482.064 1403.78 487.748C1403.78 493.432 1399.29 498.093 1393.89 498.093ZM1393.89 479.847C1389.74 479.847 1386.39 483.371 1386.39 487.691C1386.39 492.011 1389.74 495.535 1393.89 495.535C1398.04 495.535 1401.39 492.011 1401.39 487.691C1401.39 483.371 1397.98 479.847 1393.89 479.847Z" fill="#00004B"/>
<path d="M106.89 173.842C111.693 173.842 115.587 169.771 115.587 164.748C115.587 159.725 111.693 155.654 106.89 155.654C102.087 155.654 98.1938 159.725 98.1938 164.748C98.1938 169.771 102.087 173.842 106.89 173.842Z" fill="white"/>
<path d="M106.89 175.093C101.433 175.093 97 170.432 97 164.748C97 159.064 101.433 154.403 106.89 154.403C112.347 154.403 116.78 159.064 116.78 164.748C116.723 170.432 112.29 175.093 106.89 175.093ZM106.89 156.904C102.741 156.904 99.3873 160.428 99.3873 164.748C99.3873 169.068 102.741 172.592 106.89 172.592C111.039 172.592 114.393 169.068 114.393 164.748C114.393 160.428 110.983 156.904 106.89 156.904Z" fill="#00004B"/>
<path fill-rule="evenodd" clip-rule="evenodd" d="M622.193 368.619C481.457 401.927 398.13 413.068 372.154 401.984C333.218 385.386 354.192 313.029 323.499 310.812C303.036 309.335 205.954 338.835 32.3074 399.369L1.21588 310.812C194.983 247.493 315.371 218.163 362.377 222.881C432.916 229.986 406.712 323.715 435.587 323.715C454.799 323.715 512.776 310.869 609.461 285.178L581.325 339.801L622.193 368.619Z" fill="#00B082"/>
<path d="M402.393 407.384C388.524 407.384 378.292 405.963 371.699 403.177C350.782 394.254 346.689 369.983 343.108 348.554C339.925 329.513 337.14 313.086 323.385 312.063C303.207 310.585 205.385 340.369 32.6483 400.563C32.023 400.79 31.3978 400.449 31.1704 399.824L0.0789795 311.267C-0.034729 310.926 -0.034729 310.585 0.135803 310.301C0.306335 310.017 0.53363 309.789 0.817871 309.676C97.2753 278.129 176.567 254.711 236.533 240.16C296.556 225.552 338.959 219.3 362.434 221.687C381.816 223.62 395.799 232.146 405.064 247.663C413.022 260.964 416.148 276.936 418.933 291.089C422.4 308.652 425.128 322.521 435.473 322.521C454.515 322.521 512.946 309.562 609.063 283.984C609.517 283.87 609.972 284.041 610.256 284.439C610.541 284.837 610.597 285.348 610.37 285.803L582.746 339.46L622.704 367.652C623.102 367.937 623.273 368.448 623.216 368.903C623.102 369.414 622.761 369.755 622.306 369.869C552.393 386.466 495.781 397.664 454.287 403.234C433.484 405.963 416.148 407.384 402.393 407.384ZM321.907 309.562C322.532 309.562 323.044 309.562 323.555 309.619C339.13 310.756 342.199 328.888 345.439 348.099C348.906 368.846 352.885 392.435 372.608 400.847C398.073 411.76 481.059 400.676 619.237 368.05L580.643 340.824C580.131 340.483 579.961 339.744 580.245 339.232L607.13 287.053C512.378 312.233 454.628 324.966 435.587 324.966C423.31 324.966 420.24 309.505 416.716 291.544C411.146 263.408 404.268 228.338 362.263 224.131C315.711 219.471 194.756 248.914 2.75043 311.665L33.0461 397.891C203.452 338.493 298.091 309.562 321.907 309.562Z" fill="#00004B"/>
<path fill-rule="evenodd" clip-rule="evenodd" d="M1076.58 174.922H1213.16C1219.93 174.922 1225.44 180.663 1225.44 187.825C1225.44 188.962 1225.27 190.155 1224.99 191.292L1200.37 284.112C1197.93 293.32 1189.92 299.686 1180.82 299.686H1044.24C1037.47 299.686 1031.96 293.945 1031.96 286.783C1031.96 285.646 1032.13 284.453 1032.41 283.316L1057.02 190.439C1059.41 181.288 1067.43 174.922 1076.58 174.922Z" fill="white"/>
<path d="M1079.25 284.964H1053.5C1052.88 284.964 1052.31 284.396 1052.31 283.714C1052.31 283.032 1052.82 282.463 1053.5 282.463H1079.25C1079.87 282.463 1080.44 283.032 1080.44 283.714C1080.44 284.396 1079.93 284.964 1079.25 284.964Z" fill="#00004B"/>
<path d="M1062.76 259.28C1062.42 259.28 1062.02 259.11 1061.79 258.769C1061.39 258.2 1061.51 257.461 1062.02 257.063L1110.33 219.492C1110.84 219.094 1111.53 219.208 1111.92 219.663L1134.72 247.116L1206.68 191.868C1207.19 191.47 1207.93 191.584 1208.32 192.152C1208.72 192.721 1208.61 193.459 1208.1 193.857L1135.29 249.788C1134.77 250.186 1134.09 250.072 1133.69 249.617L1110.9 222.221L1063.5 259.053C1063.27 259.167 1062.98 259.28 1062.76 259.28Z" fill="#00004B"/>
<path fill-rule="evenodd" clip-rule="evenodd" d="M1186.95 202.952C1189.85 202.952 1192.18 205.396 1192.18 208.408C1192.18 208.92 1192.13 209.375 1192.01 209.886C1190.93 213.979 1187.35 216.821 1183.32 216.821C1180.42 216.821 1178.09 214.377 1178.09 211.364C1178.09 210.852 1178.14 210.398 1178.26 209.886C1179.34 205.794 1182.92 202.952 1186.95 202.952Z" fill="#F5E900"/>
<path d="M1183.26 218.071C1179.73 218.071 1176.89 215.059 1176.89 211.364C1176.89 210.739 1176.95 210.17 1177.12 209.545C1178.37 204.941 1182.41 201.701 1186.95 201.701C1190.48 201.701 1193.32 204.714 1193.32 208.408C1193.32 209.034 1193.26 209.602 1193.09 210.227C1191.9 214.831 1187.86 218.071 1183.26 218.071ZM1186.95 204.202C1183.43 204.202 1180.36 206.703 1179.39 210.227C1179.28 210.625 1179.22 210.966 1179.22 211.364C1179.22 213.694 1181.04 215.57 1183.26 215.57C1186.78 215.57 1189.85 213.069 1190.82 209.545C1190.93 209.147 1190.99 208.806 1190.99 208.408C1190.99 206.078 1189.17 204.202 1186.95 204.202Z" fill="#00004B"/>
<path d="M1180.77 300.936H1044.24C1036.79 300.936 1030.76 294.627 1030.76 286.84C1030.76 285.59 1030.94 284.282 1031.28 283.089L1055.89 190.212C1058.45 180.492 1066.97 173.728 1076.58 173.728H1213.16C1220.61 173.728 1226.64 180.038 1226.64 187.825C1226.64 189.075 1226.46 190.383 1226.12 191.576L1201.51 284.453C1198.9 294.172 1190.37 300.936 1180.77 300.936ZM1076.58 176.173C1067.99 176.173 1060.44 182.198 1058.16 190.837L1033.49 283.714C1033.21 284.737 1033.1 285.76 1033.1 286.84C1033.1 293.263 1038.1 298.492 1044.18 298.492H1180.77C1189.35 298.492 1196.91 292.467 1199.18 283.827L1223.79 190.951C1224.08 189.928 1224.19 188.905 1224.19 187.825C1224.19 181.402 1219.19 176.173 1213.11 176.173H1076.58Z" fill="#00004B"/>
<path fill-rule="evenodd" clip-rule="evenodd" d="M420.644 49.3625H516.419C525.627 49.3625 533.699 55.8423 536.029 65.2209L551.888 128.029C553.479 134.395 549.898 140.875 543.816 142.58C542.85 142.864 541.884 142.978 540.917 142.978H445.199C435.991 142.978 427.919 136.498 425.589 127.12L409.731 64.3114C408.139 57.9454 411.72 51.4656 417.802 49.7604C418.711 49.533 419.678 49.3625 420.644 49.3625Z" fill="white"/>
<path d="M515.624 122.288H454.521C453.896 122.288 453.327 121.72 453.327 121.038C453.327 120.356 453.839 119.787 454.521 119.787H515.624C516.249 119.787 516.817 120.356 516.817 121.038C516.761 121.72 516.249 122.288 515.624 122.288Z" fill="#00004B"/>
<path d="M483.793 109.329H477.199C466.854 109.329 457.931 101.257 456.396 90.5715L455.998 87.7295C455.884 86.82 455.827 85.8538 455.827 84.9443C455.827 74.3721 464.012 65.7892 474.13 65.7892H480.723C481.349 65.7892 481.917 66.3576 481.917 67.0397C481.917 67.7218 481.405 68.2902 480.723 68.2902H474.13C465.32 68.2902 458.215 75.7931 458.215 85.0012C458.215 85.7969 458.272 86.6495 458.385 87.4453L458.783 90.2873C460.147 99.7796 468.048 106.941 477.256 106.941H483.85C492.66 106.941 499.765 99.4385 499.765 90.2304C499.765 89.4347 499.708 88.5821 499.594 87.7863L499.196 84.9443C499.083 84.2622 499.537 83.637 500.163 83.5233C500.788 83.4096 501.413 83.8644 501.527 84.5464L501.925 87.3884C502.038 88.2979 502.095 89.2642 502.095 90.1736C502.095 100.689 493.853 109.329 483.793 109.329Z" fill="#00004B"/>
<path d="M478.848 93.4703C478.507 93.4703 478.223 93.3566 477.995 93.1293L468.389 83.0118C467.935 82.5002 467.935 81.7613 468.389 81.2497C468.844 80.795 469.583 80.795 470.038 81.2497L478.791 90.4578L503.801 64.084C504.255 63.5725 504.994 63.5725 505.449 64.084C505.904 64.5388 505.904 65.3345 505.449 65.8461L479.587 93.0724C479.416 93.3566 479.132 93.4703 478.848 93.4703Z" fill="#00004B"/>
<path d="M540.974 144.228H445.199C435.479 144.228 426.896 137.351 424.395 127.461L408.594 64.6525C407.741 61.2421 408.196 57.718 409.901 54.7055C411.606 51.6929 414.278 49.533 417.518 48.6236C418.541 48.3394 419.621 48.1689 420.701 48.1689H516.476C526.196 48.1689 534.779 55.0465 537.28 64.9367L553.138 127.745C553.991 131.155 553.536 134.679 551.831 137.692C550.125 140.704 547.454 142.864 544.214 143.774C543.134 144.058 542.054 144.228 540.974 144.228ZM420.644 50.613C419.791 50.613 418.882 50.7267 418.029 50.954C415.415 51.6929 413.198 53.455 411.834 55.8991C410.47 58.3432 410.129 61.2421 410.811 63.9704L426.669 126.779C428.886 135.589 436.502 141.727 445.142 141.727H540.917C541.77 141.727 542.679 141.614 543.532 141.386C546.147 140.648 548.363 138.885 549.728 136.441C551.092 133.997 551.433 131.098 550.751 128.37L534.892 65.5619C532.676 56.7517 525.059 50.613 516.419 50.613H420.644Z" fill="#00004B"/>
<path d="M733.044 641.155C732.402 641.155 731.898 640.651 731.898 640.009V628.549C731.898 627.907 732.402 627.403 733.044 627.403C733.686 627.403 734.19 627.907 734.19 628.549V640.009C734.19 640.651 733.686 641.155 733.044 641.155Z" fill="black"/>
<path d="M733.044 658.574C732.402 658.574 731.898 658.07 731.898 657.428V645.968C731.898 645.327 732.402 644.822 733.044 644.822C733.686 644.822 734.19 645.327 734.19 645.968V657.428C734.19 658.07 733.686 658.574 733.044 658.574Z" fill="black"/>
<path d="M729.606 643.676H718.146C717.504 643.676 717 643.172 717 642.53C717 641.889 717.504 641.384 718.146 641.384H729.606C730.248 641.384 730.752 641.889 730.752 642.53C730.752 643.172 730.248 643.676 729.606 643.676Z" fill="black"/>
<path d="M747.942 643.676H736.482C735.84 643.676 735.336 643.172 735.336 642.53C735.336 641.889 735.84 641.384 736.482 641.384H747.942C748.584 641.384 749.088 641.889 749.088 642.53C749.088 643.172 748.584 643.676 747.942 643.676Z" fill="black"/>
<path d="M1394.04 150.155C1393.4 150.155 1392.9 149.651 1392.9 149.009V137.549C1392.9 136.907 1393.4 136.403 1394.04 136.403C1394.69 136.403 1395.19 136.907 1395.19 137.549V149.009C1395.19 149.651 1394.69 150.155 1394.04 150.155Z" fill="black"/>
<path d="M1394.04 167.574C1393.4 167.574 1392.9 167.07 1392.9 166.428V154.968C1392.9 154.327 1393.4 153.822 1394.04 153.822C1394.69 153.822 1395.19 154.327 1395.19 154.968V166.428C1395.19 167.07 1394.69 167.574 1394.04 167.574Z" fill="black"/>
<path d="M1390.61 152.676H1379.15C1378.5 152.676 1378 152.172 1378 151.53C1378 150.889 1378.5 150.384 1379.15 150.384H1390.61C1391.25 150.384 1391.75 150.889 1391.75 151.53C1391.75 152.172 1391.25 152.676 1390.61 152.676Z" fill="black"/>
<path d="M1408.94 152.676H1397.48C1396.84 152.676 1396.34 152.172 1396.34 151.53C1396.34 150.889 1396.84 150.384 1397.48 150.384H1408.94C1409.58 150.384 1410.09 150.889 1410.09 151.53C1410.09 152.172 1409.58 152.676 1408.94 152.676Z" fill="black"/>
</svg>
