<svg width="296" height="231" viewBox="0 0 296 231" fill="none" xmlns="http://www.w3.org/2000/svg">
<mask id="mask0_413_22589" style="mask-type:luminance" maskUnits="userSpaceOnUse" x="0" y="0" width="296" height="231">
<path d="M295.778 0H0V231H295.778V0Z" fill="white"/>
</mask>
<g mask="url(#mask0_413_22589)">
<path d="M133.222 149.722V107.556L54.3889 127.722L133.222 149.722Z" fill="black"/>
<path d="M146.323 79.9438C146.592 80.1223 146.86 80.1223 147.218 80.033C147.576 79.9438 148.023 79.8546 148.471 79.9438C148.829 80.033 149.097 80.2115 149.187 80.4791C149.187 80.5683 149.187 80.6576 149.187 80.9253C149.097 81.193 149.008 81.5498 148.829 81.9067C148.739 82.0851 148.65 82.1745 148.56 82.3529C148.471 82.5313 148.382 82.6206 148.292 82.799L148.202 82.9774L148.113 83.0666L148.023 82.9774C147.933 82.799 147.755 82.7098 147.665 82.5313C147.486 82.2637 147.308 82.0851 147.218 81.9067C146.949 81.5498 146.86 81.193 146.86 80.8361C146.592 80.4791 146.592 80.1223 146.323 79.9438C146.144 79.7654 145.786 79.7654 145.338 80.1223C144.891 80.4791 144.444 81.3714 144.622 82.3529C144.622 82.8882 144.801 83.4235 145.07 83.9589C145.249 84.2266 145.338 84.405 145.428 84.6726L145.518 84.8511L145.697 85.1188C145.786 85.2973 145.965 85.4757 146.144 85.6541C146.771 86.3679 147.666 86.8141 148.65 86.6356C149.097 86.5463 149.545 86.3679 149.993 86.011C150.171 85.8326 150.44 85.6541 150.619 85.4757L150.887 85.2081L151.066 85.0295C151.245 84.8511 151.424 84.5834 151.603 84.3158C151.783 84.0481 151.871 83.7805 152.051 83.5127C152.408 82.799 152.588 82.0851 152.677 81.2822C152.767 80.4791 152.498 79.4977 152.051 78.7839C151.066 77.3563 149.276 77.0887 148.292 77.4455C147.218 77.8024 146.771 78.427 146.502 78.8731C146.055 79.4085 146.144 79.7654 146.323 79.9438Z" fill="#1B1B1B"/>
<path d="M92.0001 100.465C92.2685 100.644 92.537 100.644 92.895 100.555C93.2529 100.465 93.7004 100.376 94.1479 100.465C94.5058 100.555 94.7744 100.733 94.8639 101.001C94.8639 101.09 94.8639 101.179 94.8639 101.447C94.7744 101.714 94.6848 102.071 94.5058 102.428C94.4164 102.607 94.3269 102.696 94.2374 102.875C94.1479 103.052 94.0584 103.142 93.9689 103.32L93.8794 103.499L93.7899 103.588L93.7004 103.499C93.611 103.32 93.432 103.231 93.3425 103.052C93.1635 102.785 92.9845 102.607 92.895 102.428C92.6265 102.071 92.537 101.714 92.537 101.357C92.2685 101.001 92.1791 100.644 92.0001 100.465C91.821 100.287 91.463 100.287 91.0156 100.644C90.5682 101.001 90.1207 101.893 90.2997 102.875C90.2997 103.41 90.4786 103.946 90.7471 104.48C90.9261 104.748 91.0156 104.926 91.1051 105.194L91.1946 105.373L91.3736 105.641C91.463 105.819 91.642 105.997 91.821 106.175C92.4475 106.889 93.3425 107.336 94.3269 107.157C94.7744 107.068 95.2219 106.889 95.6693 106.533C95.8483 106.354 96.1167 106.175 96.2957 105.997L96.5642 105.73L96.7432 105.551C96.9222 105.373 97.1011 105.105 97.2802 104.838C97.4592 104.57 97.5486 104.302 97.7276 104.034C98.0857 103.32 98.2646 102.607 98.3541 101.804C98.4436 101.001 98.1751 100.019 97.7276 99.3054C96.7432 97.8778 94.9533 97.6101 93.9689 97.967C92.895 98.3239 92.4475 98.9485 92.1791 99.3946C91.7316 99.9299 91.7316 100.287 92.0001 100.465Z" fill="black"/>
<path d="M193.844 81.3716C194.113 81.55 194.381 81.55 194.739 81.4608C195.097 81.3716 195.544 81.2823 195.992 81.3716C196.35 81.4608 196.618 81.6392 196.708 81.9069C196.708 81.9961 196.708 82.0853 196.708 82.353C196.618 82.6207 196.529 82.9776 196.35 83.3344C196.261 83.5129 196.171 83.6021 196.081 83.7805C195.992 83.9591 195.903 84.0483 195.813 84.2267L195.724 84.4052L195.634 84.4944L195.544 84.4052C195.455 84.2267 195.276 84.1375 195.187 83.9591C195.007 83.6913 194.829 83.5129 194.739 83.3344C194.47 82.9776 194.381 82.6207 194.381 82.2637C194.113 81.9069 194.023 81.55 193.844 81.3716C193.666 81.1931 193.307 81.1931 192.86 81.55C192.412 81.9069 191.965 82.7991 192.143 83.7805C192.143 84.3159 192.323 84.8512 192.592 85.3866C192.77 85.6543 192.86 85.8327 192.949 86.1004L193.039 86.2788L193.217 86.5465C193.307 86.7249 193.486 86.9034 193.666 87.0819C194.292 87.7956 195.187 88.2417 196.171 88.0633C196.618 87.9741 197.067 87.7956 197.514 87.4388C197.692 87.2603 197.961 87.0819 198.14 86.9034L198.408 86.6357L198.588 86.4573C198.766 86.2788 198.945 86.0112 199.125 85.7435C199.303 85.4759 199.393 85.2081 199.572 84.9405C199.929 84.2267 200.109 83.5129 200.198 82.7099C200.288 81.9069 200.019 80.9254 199.572 80.2116C198.588 78.7841 196.798 78.5164 195.813 78.8733C194.739 79.2301 194.292 79.8548 194.023 80.3009C193.576 80.8362 193.576 81.1931 193.844 81.3716Z" fill="black"/>
<path d="M231.611 60.5828C230.806 59.7797 229.016 60.8504 227.046 62.7241C226.958 62.8133 226.868 62.9025 226.778 62.9917C226.689 63.0811 226.599 63.1703 226.509 63.2595C224.72 65.2224 223.557 66.9176 224.362 67.8099C225.078 68.5236 226.958 67.5422 228.926 65.6685C229.016 65.5792 229.105 65.49 229.194 65.4008C229.284 65.3116 229.373 65.2224 229.463 65.1332C231.253 63.1703 232.327 61.2965 231.611 60.5828Z" fill="black"/>
<path d="M125.113 106.175C124.039 105.73 123.413 105.997 122.966 106.711V106.801C122.966 106.801 122.966 106.889 122.876 106.889C122.607 107.603 122.876 108.317 123.95 108.764C124.934 109.209 125.65 108.852 126.097 108.228V108.138C126.097 108.138 126.097 108.049 126.187 108.049C126.365 107.336 126.097 106.622 125.113 106.175Z" fill="black"/>
<path d="M67.21 97.5209C66.4046 98.3238 66.4046 99.0376 66.8521 99.5729L66.9416 99.6622L67.0311 99.7514C67.5681 100.198 68.284 100.198 69.0894 99.3945C69.8053 98.6808 69.8949 97.8777 69.4474 97.3424L69.3579 97.2532L69.2684 97.164C68.8209 96.7178 68.0155 96.7178 67.21 97.5209Z" fill="black"/>
<path d="M77.5913 9.72492C77.0544 9.72492 76.6069 10.171 76.4279 10.8848C76.2489 11.5986 76.3384 12.5801 76.6963 13.6508L76.7859 13.9184L76.8754 14.1861C77.3228 15.1676 78.0388 15.9705 78.6653 16.4167C79.2917 16.8628 79.8287 16.8628 80.2762 16.5059C81.0816 15.7921 80.6341 14.4537 80.0076 12.8477L79.9182 12.5801V12.4908C79.2917 10.9741 78.6653 9.6357 77.5913 9.72492Z" fill="black"/>
<path d="M139.253 25.9638C138.448 25.1609 137.374 25.5178 136.478 26.3207C136.478 26.3207 136.389 26.4099 136.389 26.4992C136.299 26.4992 136.299 26.5885 136.21 26.5885C135.404 27.5699 135.047 28.5513 135.852 29.3544C136.568 30.0681 137.642 29.8005 138.626 28.9974C138.626 28.9082 138.716 28.9082 138.716 28.819C138.805 28.819 138.805 28.7298 138.895 28.7298C139.7 27.7483 139.969 26.6777 139.253 25.9638Z" fill="black"/>
<path d="M245.93 102.429C245.125 101.626 244.139 101.893 243.335 102.607L243.245 102.696L243.155 102.786C242.439 103.589 242.171 104.57 242.976 105.373C243.692 106.086 244.766 105.909 245.572 105.194L245.662 105.105L245.75 105.016C246.466 104.124 246.735 103.142 245.93 102.429Z" fill="black"/>
<path d="M174.872 25.5179C174.066 24.7149 173.618 24.4473 173.439 24.4473C173.35 24.6257 173.618 24.9826 174.513 25.8748C175.229 26.5886 175.766 26.9455 175.946 26.9455C175.946 26.767 175.677 26.3209 174.872 25.5179Z" fill="black"/>
<path d="M189.638 0.356567C188.832 -0.446445 187.221 0.445792 185.61 1.96259C185.521 2.05182 185.432 2.14104 185.342 2.23027C185.253 2.31948 185.163 2.40871 185.073 2.49794C183.552 4.10396 182.658 5.62076 183.463 6.513C184.179 7.22679 185.79 6.42378 187.49 4.90697C187.58 4.81775 187.67 4.72853 187.758 4.6393C187.848 4.55008 187.937 4.46085 188.027 4.37164C189.548 2.67638 190.444 1.07036 189.638 0.356567Z" fill="black"/>
<path d="M120.191 43.1843C120.012 42.9167 118.222 43.8982 115.269 45.9503C113.747 47.021 111.958 48.3594 109.988 50.1438C108.02 51.9283 105.961 54.1589 104.082 57.0141C102.203 59.8692 100.86 63.7058 100.95 67.8993C101.039 72.0928 102.65 76.4648 105.693 80.123C107.214 81.9074 109.094 83.6027 111.242 84.8518C113.389 86.101 115.984 86.9931 118.669 87.0824C121.355 87.1716 124.307 86.4578 126.634 84.8518C128.961 83.2458 130.84 80.926 131.914 78.16C132.72 75.9295 132.988 73.5204 132.541 71.2006C132.273 70.0407 131.825 68.7916 131.02 67.7209C130.214 66.6502 128.961 65.8472 127.798 65.4011C124.844 64.4196 121.712 64.6873 119.117 65.758C116.521 66.8286 114.284 68.6131 112.673 70.6652C111.868 71.6467 111.062 72.8067 110.525 73.9665C109.988 75.1264 109.541 76.2863 109.183 77.4463C108.467 79.8552 108.198 82.1751 108.109 84.495C108.02 89.0453 108.647 93.2389 109.272 97.0754C109.988 100.912 110.794 104.481 111.779 107.604C113.657 113.939 115.806 118.757 117.505 122.058C119.206 125.27 120.369 126.877 120.638 126.787C120.906 126.698 120.102 124.824 118.848 121.433C117.595 118.132 115.716 113.225 114.194 106.98C113.389 103.857 112.673 100.377 112.136 96.6293C111.599 92.8819 111.152 88.7777 111.331 84.5842C111.42 82.532 111.689 80.3906 112.315 78.3384C112.942 76.2863 113.837 74.3235 115.269 72.7174C116.611 71.0221 118.401 69.6837 120.459 68.8808C122.429 68.0777 124.755 67.8993 126.634 68.6131C127.351 68.8808 127.977 69.2377 128.335 69.7731C128.782 70.3084 129.051 71.0221 129.229 71.8252C129.588 73.4312 129.409 75.2156 128.782 76.9109C127.977 78.9631 126.545 80.8367 124.844 81.9967C123.054 83.2458 120.996 83.7811 118.938 83.6919C116.88 83.6027 114.821 82.9782 112.942 81.9967C111.152 81.0152 109.541 79.5876 108.198 78.0708C105.603 75.0372 104.172 71.2006 103.903 67.7209C103.723 64.152 104.797 60.9398 106.319 58.2632C107.841 55.5865 109.72 53.3558 111.51 51.5714C113.3 49.7869 114.91 48.2701 116.253 47.1102C118.848 44.7011 120.369 43.3628 120.191 43.1843Z" fill="#1B1B1B"/>
<path d="M135.405 147.843C135.762 149.003 151.245 145.077 171.292 139.456C172.276 139.189 173.261 138.921 174.245 138.564C175.229 138.296 176.214 138.029 177.198 137.761C197.245 132.05 212.459 127.232 212.19 126.072C211.922 125.091 196.35 128.838 176.303 134.459C175.319 134.727 174.335 134.995 173.35 135.352C172.365 135.619 171.381 135.887 170.397 136.155C150.35 141.955 135.047 146.861 135.405 147.843Z" fill="#1B1B1B"/>
<path d="M212.19 147.843C211.653 147.843 211.296 153.375 211.027 162.744C210.938 167.383 210.848 173.004 210.759 179.339C210.759 185.228 210.669 191.83 210.669 198.879C208.879 199.325 207.089 199.861 205.21 200.396C203.599 200.842 201.988 201.288 200.378 201.735C198.767 202.18 197.155 202.627 195.544 203.072C179.347 207.624 165.116 211.638 154.914 214.761C144.712 217.884 138.626 220.025 138.805 220.561C138.985 221.095 145.249 219.758 155.631 217.169C166.012 214.582 180.331 210.835 196.529 206.374C198.14 205.927 199.751 205.482 201.362 205.035C202.973 204.59 204.583 204.143 206.194 203.698C208.879 202.983 211.564 202.18 214.16 201.467C214.16 197.273 214.07 193.169 214.07 189.332C213.98 185.852 213.98 182.551 213.891 179.339C213.801 173.004 213.623 167.473 213.443 162.744C213.086 153.375 212.637 147.843 212.19 147.843Z" fill="#1B1B1B"/>
<path d="M133.347 222.524C133.525 221.988 126.992 219.758 116.074 216.545C105.156 213.333 89.8522 209.051 72.5799 204.322C70.7899 203.875 69.0896 203.43 67.3892 202.894C65.6889 202.448 63.9884 202.002 62.1986 201.467C59.3348 200.753 56.6499 199.95 53.9651 199.236C53.7861 192.009 53.6071 185.228 53.5177 179.16C53.3386 172.736 53.1596 167.026 52.8912 162.208C52.4437 152.661 51.9962 147.04 51.4593 147.04C51.0118 147.04 50.6539 152.661 50.5643 162.208C50.4749 166.937 50.4749 172.647 50.4749 179.16C50.4749 182.373 50.4749 185.852 50.4749 189.422C50.4749 193.436 50.5643 197.541 50.5643 201.824C54.0546 202.806 57.5449 203.786 61.2142 204.767C63.004 205.214 64.7043 205.661 66.4048 206.196C68.1052 206.641 69.8055 207.088 71.5954 207.623C88.9573 212.263 104.26 216.277 115.358 218.955C126.455 221.632 133.167 223.059 133.347 222.524Z" fill="#1B1B1B"/>
<path d="M51.4592 127.679C51.2802 128.214 58.7977 130.624 71.2373 134.282C83.677 137.85 101.128 142.668 120.817 148.021C122.786 148.557 124.754 149.092 126.724 149.628L128.961 150.252L129.946 150.52V150.61C130.303 170.952 130.662 188.975 131.199 201.913C131.646 214.85 132.183 222.613 132.81 222.613C133.346 222.613 133.614 214.761 133.704 201.824C133.794 188.886 133.704 170.863 133.436 150.52V147.843L127.618 146.326C125.65 145.791 123.681 145.256 121.712 144.721C101.934 139.456 84.4824 134.995 71.8638 131.961C59.2451 128.927 51.5486 127.143 51.4592 127.679Z" fill="#1B1B1B"/>
<path d="M208.521 125.448C208.701 124.913 201.272 122.593 189.011 119.203C176.751 115.812 159.568 111.351 140.148 106.354C138.089 105.819 136.031 105.283 134.063 104.838L133.794 104.749L127.708 106.354C108.288 111.44 91.1946 116.08 78.9338 119.559C66.6732 123.04 59.3347 125.359 59.5137 125.983C59.6926 126.519 67.2101 124.913 79.5603 121.969C91.9105 119.024 109.094 114.652 128.514 109.656L133.794 108.317C135.584 108.764 137.463 109.209 139.253 109.745C158.673 114.652 175.946 118.846 188.295 121.612C200.825 124.467 208.432 125.983 208.521 125.448Z" fill="#1B1B1B"/>
<path d="M229.194 138.118C229.284 138.564 233.669 137.761 241.276 136.066C248.883 134.371 259.622 131.693 272.509 128.482L272.689 128.393C272.778 128.393 272.778 128.393 272.778 128.393V128.75C272.778 129.998 272.778 131.159 272.778 132.408C272.778 134.906 272.778 137.404 272.778 139.992C272.778 145.166 272.778 150.61 272.689 156.141C272.689 158.283 272.689 160.424 272.689 162.476C272.689 164.618 272.689 166.67 272.689 168.811C272.689 171.488 272.689 174.075 272.689 176.662V177.644C272.689 177.912 272.689 178.091 272.599 178.358C272.509 178.804 272.42 179.25 272.241 179.696C271.883 180.588 271.256 181.302 270.451 181.749C270.272 181.838 270.093 182.017 269.825 182.105L269.735 182.194C269.735 182.194 269.735 182.194 269.645 182.194L269.198 182.283C268.572 182.462 268.035 182.641 267.408 182.819C266.244 183.176 265.082 183.444 263.918 183.801C261.591 184.425 259.354 185.049 257.206 185.675C248.436 188.172 240.65 190.314 234.206 192.277C221.23 196.114 213.443 198.612 213.533 199.236C213.711 199.772 221.677 197.987 234.832 194.686C241.365 193.08 249.241 191.028 258.011 188.708C260.248 188.172 262.486 187.548 264.723 186.923C265.887 186.656 267.05 186.299 268.214 186.031C268.84 185.853 269.377 185.675 270.004 185.585L270.451 185.496C270.451 185.496 270.719 185.407 270.809 185.407L271.078 185.317C271.435 185.139 271.793 184.96 272.152 184.782C273.494 183.979 274.567 182.73 275.284 181.302C275.641 180.588 275.821 179.786 276 178.983C276.09 178.625 276.09 178.18 276.09 177.823V176.841C276.09 174.254 276.09 171.666 276.09 168.989C276.09 166.849 276.09 164.707 276.09 162.655C276.09 160.513 276.09 158.461 276.09 156.32C276.09 150.698 276.09 145.345 276 140.171C276 137.582 276 134.995 275.91 132.587C275.91 131.337 275.91 130.088 275.91 128.928C275.91 128.75 275.91 127.946 275.731 127.501C275.553 126.965 275.194 126.519 274.747 126.162C273.852 125.448 272.599 125.27 271.525 125.716L271.704 125.627C258.907 129.106 248.257 132.051 240.74 134.282C233.221 136.512 229.105 137.761 229.194 138.118Z" fill="#1B1B1B"/>
<path d="M269.108 125.27C269.467 124.11 248.257 117.418 220.603 109.12C219.171 108.675 217.829 108.317 216.486 107.871C215.144 107.425 213.711 107.068 212.37 106.622C208.701 105.552 205.21 104.57 201.809 103.589C198.229 102.607 194.918 101.626 191.696 100.733C189.37 101.447 187.221 102.161 185.073 102.786C183.105 103.41 181.225 104.034 179.525 104.57C176.035 105.73 172.992 106.712 170.487 107.604C165.475 109.299 162.701 110.548 162.79 110.905C162.879 111.262 165.922 110.726 171.024 109.478C173.619 108.852 176.661 108.05 180.241 107.157C183.642 106.265 187.49 105.194 191.696 104.034C194.56 104.927 197.692 105.909 200.915 106.889C204.315 107.871 207.805 108.942 211.385 110.013C212.817 110.459 214.16 110.815 215.502 111.262C216.844 111.708 218.276 112.065 219.619 112.511C247.362 120.541 268.84 126.251 269.108 125.27Z" fill="#1B1B1B"/>
<path d="M132.362 145.523C133.526 145.523 134.063 137.493 134.331 127.054C134.331 126.519 134.331 125.983 134.331 125.448C134.331 124.912 134.331 124.377 134.331 123.842C134.331 113.403 133.973 105.373 132.809 105.283C131.736 105.283 131.109 113.314 130.93 123.753C130.93 124.288 130.93 124.824 130.93 125.359C130.93 125.894 130.93 126.429 130.93 126.964C130.84 137.493 131.288 145.523 132.362 145.523Z" fill="#1B1B1B"/>
<path d="M191.606 121.165C192.77 121.165 193.218 117.417 193.307 112.51C193.307 112.243 193.307 112.064 193.307 111.796C193.307 111.528 193.307 111.351 193.307 111.083C193.218 106.175 192.77 102.428 191.606 102.428C190.532 102.428 189.995 106.175 189.907 111.083C189.907 111.351 189.907 111.528 189.907 111.796C189.907 112.064 189.907 112.243 189.907 112.51C189.995 117.417 190.532 121.165 191.606 121.165Z" fill="#1B1B1B"/>
<path d="M133.794 149.539C133.794 149.717 134.241 149.895 135.047 150.253C135.852 150.609 137.015 151.323 138.268 152.394C139.522 153.553 140.774 155.16 141.759 157.301C142.296 158.372 142.654 159.621 143.101 160.96C143.28 161.584 143.46 162.298 143.638 163.011C143.907 164.171 144.264 165.421 144.533 166.67C149.545 165.242 155.362 163.547 161.627 161.763C167.443 160.067 173.708 158.193 180.331 156.231C181.852 155.784 183.373 155.338 184.895 154.892C186.416 154.446 187.938 154 189.459 153.553C197.066 151.234 204.315 149.003 210.759 146.951C213.98 145.969 217.023 144.988 219.887 144.006C220.603 143.739 221.319 143.561 221.946 143.293C222.571 143.114 223.108 142.937 223.735 142.758C224.004 142.669 224.361 142.579 224.63 142.49L224.809 142.401C224.898 142.401 224.898 142.401 224.809 142.311V142.222L224.72 141.776C224.541 141.151 224.361 140.616 224.272 139.992C224.183 139.635 224.004 139.188 223.914 138.832C223.735 138.207 223.557 137.583 223.288 136.958C222.393 134.459 221.409 132.319 220.066 130.623C218.813 128.928 217.292 127.768 216.038 127.054C214.697 126.341 213.623 126.073 212.817 125.983C212.012 125.894 211.653 125.983 211.653 126.162C211.564 126.519 213.174 126.698 215.234 128.304C216.307 129.106 217.381 130.267 218.455 131.872C219.439 133.478 220.334 135.441 220.961 137.851C221.14 138.475 221.319 139.011 221.409 139.724L221.497 140.17L221.587 140.348V140.438V140.706C221.677 140.795 221.497 140.795 221.409 140.795H221.319H221.23C221.23 140.795 221.23 140.795 221.14 140.795C220.424 140.974 219.708 141.151 218.992 141.419C216.128 142.222 212.996 143.114 209.775 144.096C203.241 145.969 195.992 148.111 188.385 150.431C186.864 150.877 185.343 151.323 183.821 151.858C182.299 152.305 180.778 152.751 179.257 153.197C172.634 155.249 166.369 157.211 160.641 158.907C157.778 159.8 155.004 160.692 152.408 161.495C151.066 161.941 149.813 162.298 148.65 162.744C148.023 162.922 147.396 163.1 146.859 163.368C146.681 163.458 146.592 163.458 146.412 163.547L146.323 163.279C146.233 163.19 146.233 163.1 146.144 162.655C145.965 161.941 145.696 161.227 145.428 160.513C144.891 159.086 144.354 157.837 143.728 156.677C142.474 154.357 140.864 152.572 139.342 151.502C137.821 150.342 136.389 149.895 135.405 149.717C134.331 149.271 133.883 149.45 133.794 149.539Z" fill="#1B1B1B"/>
<path d="M130.303 150.074C130.303 149.895 129.766 149.806 128.782 149.984C127.798 150.163 126.365 150.609 124.844 151.769C123.323 152.839 121.622 154.624 120.369 156.944C119.743 158.104 119.206 159.442 118.669 160.781C118.401 161.494 118.222 162.208 117.954 162.922L117.774 163.457L117.685 163.547L117.595 163.725L117.417 163.636H117.327C117.327 163.636 117.327 163.636 117.237 163.636C116.611 163.457 115.984 163.279 115.447 163.1C114.194 162.744 112.942 162.386 111.599 161.941C109.004 161.138 106.14 160.423 103.276 159.531C97.4591 157.926 91.105 156.141 84.4825 154.268C82.9612 153.821 81.4397 153.465 79.8288 153.018C78.3074 152.572 76.786 152.215 75.2646 151.769C67.5681 149.628 60.3191 147.665 53.6966 145.969C50.3853 145.077 47.2529 144.274 44.3892 143.56C43.6732 143.382 42.9573 143.203 42.2413 143.026C42.1519 143.026 42.1519 143.026 42.1519 143.026H42.0623H41.9728C41.8834 143.026 41.7938 143.026 41.7938 142.936C41.7044 143.114 42.1519 141.24 42.5098 140.17C43.2257 137.85 44.0312 135.798 45.0156 134.192C46.0001 132.586 47.1635 131.426 48.1479 130.623C50.2063 129.017 51.8172 128.75 51.7277 128.392C51.7277 128.303 51.2803 128.214 50.5643 128.303C49.7588 128.392 48.6849 128.66 47.3425 129.374C46.0896 130.087 44.5682 131.248 43.3153 132.943C41.9728 134.638 40.9884 136.779 40.0935 139.278C39.646 140.616 39.3775 141.329 38.6616 144.185L38.572 144.631V144.721C38.572 144.721 38.6616 144.721 38.6616 144.81L38.8406 144.899C39.1091 144.987 39.467 145.077 39.7354 145.166C40.3619 145.345 40.8989 145.523 41.5254 145.702C42.2413 145.881 42.9573 146.148 43.6732 146.326C46.537 147.129 49.6694 148.111 52.8911 149.003C59.4241 150.876 66.6732 152.929 74.3697 155.07C75.891 155.516 77.4125 155.873 78.9338 156.32C80.4553 156.765 81.9766 157.123 83.4981 157.568C90.2101 159.353 96.5642 161.049 102.381 162.654C108.735 164.26 114.553 165.777 119.564 167.115C119.832 165.867 120.191 164.707 120.459 163.547C120.638 162.833 120.817 162.118 120.996 161.494C121.355 160.156 121.802 158.907 122.339 157.836C123.323 155.605 124.576 154 125.828 152.839C127.082 151.679 128.245 151.055 129.051 150.698C129.856 150.431 130.393 150.252 130.303 150.074Z" fill="#1B1B1B"/>
<path d="M68.0157 193.258C68.1051 192.901 66.3153 192.188 63.8989 191.562L63.541 191.474L63.1829 191.385C60.6772 190.938 58.7978 190.938 58.7083 191.295C58.7083 191.652 60.5876 191.92 62.9145 192.454L63.2725 192.544L63.6304 192.633C66.1363 193.08 67.9261 193.615 68.0157 193.258Z" fill="#1B1B1B"/>
<path d="M76.9648 199.235C77.0544 198.969 73.8326 197.451 69.3579 196.38C69.0894 196.291 68.9104 196.291 68.6419 196.202C68.4629 196.112 68.1944 196.113 67.926 196.024C63.3617 195.043 59.8715 194.953 59.782 195.309C59.782 195.667 63.2723 196.024 67.6575 197.094C67.8364 197.183 68.105 197.183 68.2839 197.272C68.4629 197.362 68.7314 197.362 68.9104 197.451C73.5641 198.433 76.8754 199.593 76.9648 199.235Z" fill="#1B1B1B"/>
<path d="M159.031 128.036C159.12 127.68 156.078 126.341 151.871 125.091C151.693 125.002 151.424 125.002 151.245 124.914C151.066 124.824 150.797 124.824 150.619 124.735C146.323 123.664 143.011 123.307 142.922 123.664C142.833 124.022 146.144 124.646 150.35 125.717C150.529 125.806 150.797 125.806 150.977 125.895C151.156 125.984 151.424 125.984 151.603 126.073C155.719 127.233 158.941 128.304 159.031 128.036Z" fill="#1B1B1B"/>
<path d="M146.771 128.661C146.949 128.303 146.322 127.946 145.607 127.5C145.607 127.5 145.518 127.5 145.518 127.411C145.518 127.411 145.428 127.411 145.428 127.322C144.622 126.965 143.907 126.786 143.817 127.054C143.638 127.322 144.264 127.767 144.981 128.214C144.981 128.214 145.07 128.214 145.07 128.303C145.07 128.303 145.159 128.303 145.159 128.393C145.965 128.838 146.591 128.927 146.771 128.661Z" fill="#1B1B1B"/>
<path d="M238.949 164.884C239.217 165.063 240.47 163.011 241.813 160.156C241.902 159.978 241.902 159.889 241.992 159.71C242.081 159.531 242.081 159.442 242.171 159.263C243.424 156.408 244.051 154.089 243.782 154C243.514 153.91 242.529 156.052 241.276 158.818C241.187 158.997 241.187 159.086 241.097 159.263C241.007 159.442 241.007 159.531 240.918 159.71C239.576 162.565 238.591 164.707 238.949 164.884Z" fill="#1B1B1B"/>
<path d="M241.902 166.045C242.261 166.134 242.618 165.421 242.977 164.35C242.977 164.26 242.977 164.26 243.066 164.171C243.066 164.082 243.066 164.082 243.155 163.992C243.424 162.923 243.514 162.119 243.245 162.03C242.976 161.941 242.529 162.655 242.171 163.726C242.171 163.815 242.171 163.815 242.081 163.904C242.081 163.992 242.081 163.992 241.992 164.082C241.634 165.153 241.545 165.955 241.902 166.045Z" fill="#1B1B1B"/>
<path d="M195.366 61.0289C194.113 66.2932 189.906 70.7543 185.521 72.2711C181.047 73.8771 176.035 72.3604 174.066 67.8992C171.202 61.3858 175.319 51.3927 184.179 48.9838C192.592 46.6639 197.066 53.6234 195.366 61.0289Z" fill="black"/>
<path d="M191.339 46.9319C191.428 46.6642 190.712 45.9504 188.922 45.3259C188.027 45.0582 186.864 44.8798 185.521 44.969C185.163 44.969 184.806 45.0582 184.447 45.0582C184.089 45.1474 183.732 45.2367 183.373 45.3259C183.016 45.4151 182.658 45.5043 182.21 45.5935C181.852 45.772 181.494 45.8612 181.047 46.0397C180.241 46.3074 179.525 46.7535 178.63 47.1995C178.273 47.4673 177.824 47.735 177.467 48.0026C177.288 48.181 177.109 48.2703 176.84 48.4487C176.661 48.6271 176.483 48.8056 176.303 48.9841C174.782 50.3225 173.529 52.1069 172.455 54.0698C171.471 56.1219 170.755 58.4417 170.575 60.94C170.397 63.4383 170.665 66.115 172.008 68.7025C172.545 69.7732 173.261 70.6653 174.156 71.4684C175.05 72.2715 175.946 72.896 177.02 73.3421C179.704 74.502 182.479 74.5912 184.984 74.0559C187.49 73.5205 189.728 72.2715 191.428 70.8439C195.007 67.9887 197.067 64.3305 197.692 61.0293C198.319 57.728 197.782 54.9621 197.067 53.3561C196.35 51.6607 195.544 51.0362 195.276 51.1254C195.007 51.3038 195.366 52.1961 195.634 53.8021C195.903 55.4082 196.081 57.728 195.276 60.494C194.471 63.1706 192.592 66.2042 189.459 68.4348C187.938 69.5055 186.147 70.4869 184.179 70.8439C182.21 71.2008 180.152 71.1115 178.273 70.3085C177.557 69.9516 176.84 69.5055 176.303 69.0593C175.766 68.524 175.229 67.8995 174.872 67.1857C173.887 65.4012 173.619 63.2598 173.798 61.2077C173.888 59.1556 174.425 57.1926 175.229 55.4974C176.035 53.8021 177.02 52.2853 178.183 51.1254C178.361 50.947 178.451 50.8578 178.63 50.6793L179.078 50.3225C179.347 50.0547 179.704 49.7871 179.973 49.6086C180.599 49.1625 181.225 48.7163 181.852 48.4487C182.21 48.2703 182.479 48.0918 182.747 48.0026C183.105 47.9134 183.373 47.8242 183.642 47.6457C184.269 47.378 184.806 47.1995 185.343 47.1103C186.416 46.8427 187.401 46.8427 188.207 46.9319C190.354 46.9319 191.249 47.1995 191.339 46.9319Z" fill="#1B1B1B"/>
<path d="M185.879 54.8723C184.716 54.9615 184.536 57.6382 184.358 60.9395C184.358 61.1179 184.358 61.2963 184.358 61.4748C184.358 61.6532 184.358 61.8317 184.358 62.0102C184.358 65.3114 184.358 67.8989 185.521 68.1666C186.596 68.345 187.669 65.7575 187.848 62.0994C187.848 61.921 187.848 61.7425 187.848 61.564C187.848 61.3856 187.848 61.2071 187.848 61.0287C187.758 57.4598 186.953 54.7831 185.879 54.8723Z" fill="white"/>
<path d="M191.606 60.1363C191.338 58.9764 188.922 59.0657 185.879 59.6902C185.7 59.6902 185.61 59.7794 185.432 59.7794C185.253 59.7794 185.163 59.8686 184.984 59.8686C182.031 60.6717 179.794 61.6531 180.062 62.813C180.331 63.8837 182.748 63.8837 185.79 63.2592C185.969 63.2592 186.059 63.17 186.237 63.17C186.416 63.17 186.506 63.0806 186.684 63.0806C189.638 62.2777 191.786 61.207 191.606 60.1363Z" fill="white"/>
</g>
</svg>
