<svg width="89" height="41" viewBox="0 0 89 41" fill="none" xmlns="http://www.w3.org/2000/svg">
<path d="M74.8135 25.0479H79.1815V33.3919C79.1815 35.1559 79.9935 36.2479 81.7575 36.2479C83.5215 36.2479 84.4455 35.0439 84.4455 33.3919V25.0479H88.8135V39.9999H84.5015V38.1519H84.4735C83.4935 39.5799 82.0935 40.3079 80.3015 40.3079C78.5375 40.3079 77.1655 39.7479 76.2135 38.6279C75.2895 37.4799 74.8135 36.0799 74.8135 34.4279V25.0479Z" fill="black"/>
<path d="M61.9857 32.9162V40.0002H57.6177V17.1802H61.9857V30.9282L67.1657 25.0482H72.7377L66.7177 31.9362L72.9057 40.0002H67.3897L62.0977 32.9162H61.9857Z" fill="black"/>
<path d="M51.3516 17.124C52.8916 17.124 54.0956 18.3 54.0956 19.84C54.0956 21.324 52.8916 22.528 51.3516 22.528C49.8956 22.528 48.6636 21.324 48.6636 19.84C48.6636 18.356 49.8956 17.124 51.3516 17.124ZM53.5916 40H49.1956V25.048H53.5916V40Z" fill="black"/>
<path d="M11.9966 28.4111H29.5327L23.5854 21.6821H6.729L11.9966 28.4111Z" fill="black"/>
<path d="M24.6018 25.4112L6.31901 3H29.2854C33.2448 3 36.9102 5.08948 38.9275 8.49644C43.3504 15.9662 37.9663 25.4112 29.2854 25.4112H24.6018Z" stroke="black" stroke-width="6"/>
<path d="M31.7755 40L22.4297 27.6636H30.654L39.9998 40H31.7755Z" fill="black"/>
</svg>
