<svg width="113" height="54" viewBox="0 0 113 54" fill="none" xmlns="http://www.w3.org/2000/svg">
<path d="M98.8135 24.0479H103.181V32.3919C103.181 34.1559 103.993 35.2479 105.757 35.2479C107.521 35.2479 108.445 34.0439 108.445 32.3919V24.0479H112.813V38.9999H108.501V37.1519H108.473C107.493 38.5799 106.093 39.3079 104.301 39.3079C102.537 39.3079 101.165 38.7479 100.213 37.6279C99.2895 36.4799 98.8135 35.0799 98.8135 33.4279V24.0479Z" fill="black"/>
<path d="M85.9857 31.9162V39.0002H81.6177V16.1802H85.9857V29.9282L91.1657 24.0482H96.7377L90.7177 30.9362L96.9057 39.0002H91.3897L86.0977 31.9162H85.9857Z" fill="black"/>
<path d="M75.3516 16.124C76.8916 16.124 78.0956 17.3 78.0956 18.84C78.0956 20.324 76.8916 21.528 75.3516 21.528C73.8956 21.528 72.6636 20.324 72.6636 18.84C72.6636 17.356 73.8956 16.124 75.3516 16.124ZM77.5916 39H73.1956V24.048H77.5916V39Z" fill="black"/>
<rect width="57" height="54" fill="black"/>
<path d="M18.066 35.2069H34.2415L28.7556 29H13.207L18.066 35.2069Z" fill="white"/>
<path d="M29.8036 32.2069L13.319 12H34.0132C37.5832 12 40.8881 13.884 42.707 16.9558C46.6948 23.6908 41.8403 32.2069 34.0132 32.2069H29.8036Z" stroke="white" stroke-width="6"/>
<path d="M36.3101 45.8969L27.6895 34.5176H35.2757L43.8963 45.8969H36.3101Z" fill="white"/>
</svg>
